<svg width="293" height="232" fill="none" xmlns="http://www.w3.org/2000/svg">
  <path d="M236.529 142.816c14.698-7.117 26.728-19.901 32.463-36.474 11.469-33.1459-6.346-69.693-39.58-81.193-33.233-11.4998-69.827 6.22-81.297 39.366l-11.142 32.2012c-10.704-3.7042-23.371-8.0872-32.286-11.1722-33.2331-11.4998-69.8257 6.2192-81.2953 39.365-11.4698 33.146 6.3459 69.693 39.5793 81.193 16.6162 5.75 34.1333 4.227 48.832-2.891 14.699-7.117 26.728-19.901 32.463-36.474l11.143-32.201 32.285 11.172c16.617 5.75 34.136 4.226 48.835-2.892zm-13.013-26.693c-7.859 3.805-17.094 4.625-26.105 1.507-8.916-3.086-22.506-7.788-32.286-11.173l11.143-32.2001c6.22-17.9759 25.405-27.2655 43.428-21.0289 18.023 6.2365 27.363 25.3968 21.143 43.3727-3.111 8.9883-9.464 15.7163-17.323 19.5223zM98.7908 176.518c-7.859 3.805-17.0937 4.625-26.1055 1.506-18.0231-6.236-27.3632-25.397-21.1429-43.372 6.2201-17.976 25.4075-27.267 43.4299-21.03 8.9157 3.085 22.5057 7.788 32.2857 11.172l-11.143 32.201c-3.11 8.987-9.465 15.717-17.3242 19.523z" fill="#08A"/>
  <path opacity=".3079" fill-rule="evenodd" clip-rule="evenodd" d="M155.413 134.538l-1.856 5.361-28.153-9.742 1.855-5.361 28.154 9.742z" fill="#000"/>
  <path opacity=".3081" fill-rule="evenodd" clip-rule="evenodd" d="M166.978 101.094l-1.855 5.361-28.153-9.7417 1.855-5.3615 28.153 9.7422z" fill="#000"/>
</svg>