<svg width="210" height="292" fill="none" xmlns="http://www.w3.org/2000/svg">
  <path d="M208.917 275.382c-5.305-14.803-12.199-29.044-20.595-42.343-9.624-15.195-21.113-29.171-33.85-41.86-.36-.452-1.151-.794-.719-1.45 1.669-5.957 2.332-12.28 1.207-18.4-1.617-10.273-6.422-19.77-12.351-28.212-2.283-3.244-4.738-6.362-7.303-9.387 2.822-9.065 3.692-18.96 1.113-28.187-2.091-7.015-6.25-13.3031-11.402-18.455-10.879-10.6005-26.9441-15.6168-41.9239-12.9745-3.5403.57-7.0292 1.5359-10.302 3.01-7.1685-6.5513-14.1618-13.3792-19.9681-21.192-2.915-3.8728-4.8509-6.3196-9.5319-13.008-2.7916-3.9886-12.1724-17.5381-23.7264-37.7817l-4.0982 15.2585L.3124 16.6928c15.7261 25.9682 30.001 45.0776 33.6543 50.1104 12.9129 17.7897 15.07 17.9002 23.6892 25.7768-2.5742 6.1539-2.3266 13.209-.2165 19.46 1.7901 5.986 5.1111 11.355 8.4971 16.554 4.7712 6.969 10.0547 13.574 15.4833 20.039 4.0186 4.733 8.1754 9.347 12.4258 13.874-4.5725 7.719-7.7256 16.444-8.1359 25.457-.2165 7.753 2.7621 15.527 8.113 21.149 4.5847 4.911 10.8423 8.166 17.4583 9.278 3.88.667 7.887.847 11.784.219 6.237-1.1 11.992-4.184 16.875-8.144.576-.485 1.152-.971 1.699-1.489 12.465 12.777 23.556 26.951 32.485 42.409 5.741 10.011 10.539 20.539 14.456 31.402.42 1.329.977 2.648 1.316 4.007l4.254-18.982 14.767 7.569zm-85.446-79.656c-2.336 1.347-5.016 2.126-7.709 1.644-3.299-.473-6.682-2.365-7.944-5.586-1.179-3.359-.169-6.959.898-10.205.339-.996.722-1.977 1.143-2.942 5.358 5.139 10.802 10.18 16.226 15.25-.135.109-.27.219-.405.329-.69.549-1.43 1.061-2.209 1.51zm9.173-25.339c-.642-.599-1.283-1.2-1.924-1.799-3.106-2.927-6.2-5.867-9.255-8.847 1.045-1.546 2.092-3.089 3.112-4.65 3.352 4.704 6.313 9.767 8.067 15.296zm-26.576-26.523c-8.7717-9.659-17.224-19.623-24.2416-30.642 9.5847 7.915 19.2596 15.768 28.0286 24.598-.09.153-.178.306-.267.459-1.133 1.905-2.3 3.74-3.52 5.585zm10.072-29.926c-7.208-6.497-14.754-12.603-22.2259-18.792 7.6129.8401 14.9719 4.884 19.2779 11.285.974 1.468 1.892 3.172 2.422 4.918.253.845.41 1.716.526 2.589z" fill="#2C89A0"/>
  <path opacity=".5947" d="M57.6549 92.5796l15.1352-15.4568c-7.1685-6.5512-14.1617-13.379-19.9681-21.1918-2.915-3.8728-4.8509-6.3197-9.5319-13.0082-2.7917-3.9886-12.1723-17.5379-23.7264-37.7815l-4.0973 15.2585-15.156-3.7075c15.7269 25.9676 30.0022 45.0776 33.6553 50.1105 12.913 17.7895 15.07 17.9002 23.6892 25.7768z" fill="#326E7E"/>
  <path fill-rule="evenodd" clip-rule="evenodd" d="M121.825 159.207c.925-1.368 1.848-2.734 2.75-4.116-1.632-9.058-5.761-15.599-14.721-17.27-.089.152-.177.305-.267.458-.724 1.218-1.465 2.408-2.223 3.591.04.035.084.076.122.11 5.355 5.251 10 11.13 14.339 17.227zm13.481-25.478a61.478 61.478 0 001.44-5.498c-5.367-6.335-11.015-12.464-17.466-17.715-1.957-1.704-3.889-3.472-6.066-4.89-.222-.099-.437-.106-.63-.052.208.281.412.566.609.857.973 1.468 1.892 3.172 2.422 4.917.253.846.409 1.717.525 2.59l19.166 19.791zM113.327 181.938c3.547-6.471 7.368-12.815 11.514-18.936-1.129-1.083-2.256-2.169-3.375-3.261-12.351.381-16.074 6.781-11.608 18.896 1.152 1.105 2.31 2.204 3.469 3.301zm-12.238-21.037c4.973-2.905 5.612-9.438 4.979-17.037a485.8288 485.8288 0 01-3.19-3.546c-4.2144 6.146-8.3944 12.315-12.3181 18.65a427.0352 427.0352 0 003.2849 3.54c3.0781.019 5.4448-.557 7.2442-1.607zM88.4186 118.669c-.9984-3.105-1.9907-6.208-2.8564-9.327-.5496-2.384-1.1781-5.027-.1056-7.36 1.0487-1.677 3.2215-1.968 5.0235-2.1576 2.4428-.2167 4.9142.2136 7.344-.1223.374-.1031.7104-.2744 1.0078-.4943-1.6401-1.3532-3.2813-2.7054-4.9187-4.0616-17.1749-5.443-23.5491-1.4636-12.0877 18.0768 2.1973 1.814 4.3984 3.626 6.5932 5.447l-.0001-.001zM57.655 92.5799l15.1352-15.4565a329.2258 329.2258 0 01-3.6324-3.3671c-5.4604 2.9597-10.3176 7.0981-13.5068 12.4586-.6116 1.0139-1.1407 2.0695-1.6338 3.1424 1.1072.9571 2.276 1.9782 3.6378 3.2226zM138.021 211.934c.652-.475 1.293-.962 1.918-1.469.576-.484 1.152-.97 1.699-1.489l-15.554-15.089c-.136.11-.27.22-.405.329-.69.549-1.43 1.061-2.209 1.51-.443.255-.898.49-1.363.7.205.309.467.585.745.795 5.061 4.899 10.111 9.81 15.169 14.713zm15.731-22.205c.481-1.716.875-3.463 1.17-5.226-7.806-7.147-15.585-14.326-23.439-21.418-1.082-.791-2.164-1.581-3.245-2.372 1.796 3.066 3.329 6.282 4.405 9.675l21.109 19.341z" fill="#326E7E"/>
  <path fill-rule="evenodd" clip-rule="evenodd" d="M153.753 189.728c-2.441 8.23-6.672 14.145-12.114 19.248l-15.555-15.089c9.347-8.911 8.517-16.29 6.56-23.5l21.109 19.341zM135.305 133.729c-3.142 8.772-7.091 14.473-10.729 21.362-4.802-6.755-9.712-12.514-14.722-17.271 6.482-11.139 6.947-17.918 6.286-23.882 5.519 4.936 7.568 5.898 19.165 19.791zM121.465 159.741c-4.205 5.991-8.048 12.314-11.607 18.896l-16.0131-16.13c3.5986-6.023 7.7451-12.172 12.2231-18.643l15.397 15.877zM93.9139 95.1457c-12.7474-.6431-16.0967 5.9033-12.0886 18.0763L57.6557 92.58c2.862-7.0893 8.0642-12.1024 15.1351-15.4567l21.1231 18.0224z" fill="#2C89A0"/>
</svg>