<svg width="184" height="259" fill="none" xmlns="http://www.w3.org/2000/svg">
  <path d="M70.5098 12.771c.893 1.6771.9519 3.7772.1733 6.1806s-2.3794 5.0629-4.7111 7.8267c-2.3317 2.7637-5.3486 5.5776-8.8784 8.281-3.5298 2.7033-7.5034 5.2432-11.6939 7.4746-8.4375 4.508-15.8062 10.1655-20.4917 15.733-4.6856 5.5675-6.3062 10.5911-4.5067 13.9704l10.8998 20.4695c-1.7994-3.3793-.1789-8.4029 4.5067-13.9704 4.6856-5.5675 12.0542-11.225 20.4917-15.733l.1115-.0594c8.4375-4.5081 15.8061-10.1655 20.4917-15.733 4.6856-5.5675 6.3062-10.5911 4.5067-13.9704L70.5098 12.771zm27.2014 51.0832c.893 1.6771.9519 3.7772.1733 6.1806s-2.3794 5.0629-4.711 7.8267c-2.3317 2.7637-5.3487 5.5776-8.8785 8.281-3.5298 2.7033-7.5034 5.2432-11.6939 7.4746-8.4375 4.5081-15.8061 10.1659-20.4917 15.7329-4.6856 5.568-6.3062 10.591-4.5067 13.97l10.8999 20.47c-1.7995-3.379-.1789-8.403 4.5066-13.97 4.6856-5.568 12.0543-11.225 20.4918-15.733l.1114-.06c8.4375-4.508 15.8062-10.165 20.4916-15.7328 4.686-5.5675 6.306-10.5911 4.507-13.9704L97.7112 63.8542zm27.2018 51.0828c.893 1.678.952 3.778.173 6.181-.779 2.403-2.379 5.063-4.711 7.827-2.332 2.763-5.349 5.577-8.879 8.281-3.529 2.703-7.503 5.243-11.6935 7.474-8.4375 4.508-15.8061 10.166-20.4917 15.733-4.6856 5.568-6.3062 10.591-4.5066 13.971l10.8998 20.469c-1.7994-3.379-.1788-8.403 4.5068-13.97 4.6856-5.568 12.0542-11.225 20.4912-15.733.038-.02.075-.04.112-.06 8.437-4.508 15.806-10.165 20.492-15.733 4.685-5.567 6.306-10.591 4.506-13.97l-10.899-20.47zm27.201 51.084c1.804 3.387.171 8.425-4.538 14.007-4.709 5.582-12.109 11.249-20.572 15.755-8.438 4.509-15.806 10.166-20.492 15.734-4.685 5.567-6.306 10.591-4.506 13.97l10.899 20.469c-1.799-3.379-.178-8.403 4.507-13.97 4.686-5.568 12.054-11.225 20.492-15.733.037-.02.074-.04.111-.059 8.438-4.508 15.806-10.166 20.492-15.733 4.686-5.568 6.306-10.591 4.507-13.971l-10.9-20.469z" fill="#054"/>
  <path d="M70.5093 12.7708c-1.7994-3.3793-6.8721-4.8388-14.107-4.0587-7.2348.78-16.042 3.7361-24.4921 8.2205l-.1117.0595 10.8999 20.4695c4.1905-2.2315 8.5158-4.1107 12.7291-5.5305 4.2133-1.4198 8.2321-2.3524 11.8267-2.7443 3.5947-.392 6.6949-.2357 9.1236.4598s4.1383 1.9166 5.0314 3.5937L70.5093 12.7708zM97.7108 63.854c-1.7995-3.3793-6.8722-4.8388-14.107-4.0587-7.2349.7801-16.0421 3.7361-24.4921 8.2205-4.1905 2.2314-8.5159 4.1107-12.7292 5.5305-4.2133 1.4198-8.232 2.3523-11.8267 2.7443-3.5946.392-6.6948.2357-9.1235-.4598s-4.1384-1.9166-5.0314-3.5937l10.8998 20.4695c1.7994 3.3793 6.8722 4.8387 14.107 4.0587 7.2349-.7801 16.042-3.7361 24.4921-8.2205 4.1905-2.2315 8.5159-4.1107 12.7292-5.5305 4.2133-1.4198 8.2321-2.3522 11.8267-2.7442 3.5946-.392 6.6943-.2358 9.1233.4597 2.429.6955 4.139 1.9166 5.032 3.5937L97.7108 63.854zm27.2012 51.083c-1.799-3.379-6.872-4.839-14.107-4.059-7.235.781-16.0418 3.737-24.4919 8.221-4.1905 2.231-8.5159 4.111-12.7292 5.53-4.2132 1.42-8.2321 2.353-11.8267 2.745-3.5946.392-6.6948.235-9.1235-.46-2.4287-.695-4.1384-1.917-5.0314-3.594l10.8998 20.47c1.7995 3.379 6.8722 4.839 14.1071 4.058 7.2348-.78 16.042-3.736 24.492-8.22 4.1908-2.231 8.5158-4.111 12.7288-5.531 4.214-1.419 8.232-2.352 11.827-2.744 3.595-.392 6.695-.236 9.124.46 2.428.695 4.138 1.917 5.031 3.594l-10.9-20.47zm27.202 51.083c-1.8-3.379-6.873-4.838-14.107-4.058-7.235.78-16.042 3.736-24.492 8.22-8.464 4.507-17.2965 7.483-24.5562 8.275-7.2597.792-12.3514-.667-14.1551-4.054l10.8999 20.47c1.7994 3.379 6.8721 4.839 14.107 4.059 7.2344-.78 16.0424-3.736 24.4924-8.221 8.463-4.506 17.296-7.483 24.555-8.274 7.26-.792 12.352.666 14.155 4.053l-10.899-20.47zm-11.398 55.245c-8.463 4.507-17.296 7.484-24.556 8.275-7.259.792-12.351-.666-14.155-4.053l10.9 20.469c1.799 3.379 6.872 4.839 14.107 4.059 7.235-.78 16.042-3.736 24.492-8.221l.112-.059-10.9-20.47z" fill="#0A8"/>
</svg>