<svg width="187" height="549" fill="none" xmlns="http://www.w3.org/2000/svg">
  <path d="M31.8731 526.14c.1025-2.433 3.0146-3.816 8.093-3.849 5.0791-.032 11.9087 1.287 18.9946 3.649.0886-2.364.1796-4.728.2729-7.092 7.0761 2.375 13.9043 3.682 18.9814 3.655 5.078-.026 7.9917-1.384 8.1061-3.773-.0004-.013.0009-.027.0017-.04.3336-8.369.6975-16.733 1.0946-25.093-.1257 2.39-3.0464 3.728-8.1253 3.718-5.0779-.01-11.9004-1.369-18.9626-3.799-.1114 2.363-.2201 4.726-.3263 7.09-7.0636-2.414-13.8789-3.785-18.9573-3.792-5.0777-.007-8.0033 1.352-8.1309 3.781.0004.014-.0013.028-.0018.041-.3789 8.503-.7246 17.005-1.04 25.504h-.0001z" fill="#054"/>
  <path d="M31.872 526.18c-.0713 2.441 2.6713 5.719 7.6302 9.099 4.9625 3.382 11.724 6.581 18.8205 8.908.2749-8.447.5777-16.893.9113-25.339-7.0855-2.378-13.8277-5.627-18.7669-9.05-4.9351-3.419-7.6503-6.721-7.5537-9.162-.3789 8.503-.7246 17.004-1.04 25.503.0004.014-.001.028-.0015.041h.0001z" fill="#0A8"/>
  <path d="M33.7873 482.211c.1348-2.434 3.0653-3.78 8.1437-3.745 5.0791.035 11.89 1.447 18.944 3.903.1198-2.363.2424-4.726.3678-7.088 7.0431 2.471 13.8533 3.869 18.9302 3.911 5.0778.041 8.0091-1.276 8.1557-3.659-.0005-.013.0015-.027.002-.04.4465-8.353.9283-16.7 1.4484-25.041-.1608 2.384-3.1003 3.677-8.1782 3.592-5.0769-.084-11.8787-1.542-18.9039-4.076-.1462 2.361-.2894 4.722-.4296 7.084-7.0278-2.516-13.8217-3.987-18.8993-4.068-5.0767-.082-8.0218 1.236-8.1845 3.667.0003.014-.0018.027-.0026.041-.5019 8.507-.9655 17.014-1.3939 25.519h.0002zM36.3292 438.259c.172-2.435 3.123-3.737 8.1999-3.624 5.0777.114 11.8653 1.632 18.8804 4.196.156-2.361.3152-4.721.4774-7.081 7.003 2.58 13.7906 4.083 18.8658 4.204 5.0762.12 8.0271-1.149 8.2109-3.526-.0004-.014.0018-.027.0026-.041.5768-8.333 1.1938-16.66 1.854-24.98-.2008 2.377-3.1612 3.62-8.2368 3.45-5.0744-.17-11.8508-1.74-18.8318-4.393-.186 2.359-.3686 4.717-.5477 7.076-6.9849-2.631-13.7527-4.217-18.8281-4.383-5.0744-.165-8.0411 1.105-8.244 3.536.0004.014-.0019.027-.0031.041a2620.335 2620.335 0 00-1.7997 25.525h.0002zM39.5892 394.299c.2143-2.435 3.1877-3.687 8.2616-3.485 5.075.203 11.8347 1.841 18.8042 4.526.1968-2.357.3972-4.714.6013-7.071 6.9561 2.705 13.7165 4.325 18.7886 4.535 5.0732.211 8.0458-1.005 8.2715-3.375.0026-.013.0022-.027.0035-.04.3786-4.345.7696-8.688 1.1733-13.029.3693-3.963.7487-7.924 1.1388-11.883-.2458 2.37-3.2292 3.555-8.3011 3.289-5.0706-.265-11.8175-1.961-18.7479-4.745-.2304 2.354-.4569 4.71-.6798 7.065-6.9354-2.761-13.673-4.475-18.7448-4.735-5.0709-.26-8.0609.956-8.3084 3.386-.0027.013-.0024.028-.0038.041a2351.7935 2351.7935 0 00-2.2568 25.521h-.0002z" fill="#054"/>
  <path d="M33.7855 482.251c-.1037 2.442 2.5955 5.761 7.5107 9.207 4.9194 3.449 11.639 6.733 18.7072 9.148 7.063 2.414 13.8119 5.677 18.7419 9.059 4.9344 3.385 7.6613 6.625 7.5778 9.026.3335-8.368.6974-16.733 1.0945-25.092-.0004-.014.0013-.027.0021-.04.0947-2.4-2.6105-5.657-7.5174-9.077-4.9019-3.417-11.6212-6.732-18.6591-9.201-7.0531-2.474-13.7484-5.817-18.6396-9.311-4.8865-3.491-7.554-6.836-7.4221-9.278a2970.801 2970.801 0 00-1.3939 25.518c.0004.014-.0013.028-.0021.041zM36.3266 438.299c-.1411 2.443 2.5073 5.806 7.3704 9.328 4.8679 3.525 11.5371 6.908 18.5701 9.425 7.0262 2.515 13.7292 5.873 18.6105 9.321 4.8864 3.452 7.5688 6.724 7.4528 9.121.4465-8.353.9283-16.7 1.4484-25.041-.0005-.014.0015-.027.0026-.041.1301-2.395-2.5261-5.687-7.3802-9.179-4.8485-3.488-11.5168-6.905-18.5141-9.484-7.0138-2.584-13.6537-6.033-18.4884-9.609-4.8296-3.572-7.4417-6.964-7.2696-9.407a2617.2007 2617.2007 0 00-1.7997 25.525c.0004.014-.0017.027-.0028.041zM39.5857 394.34c-.1834 2.443 2.4065 5.856 7.2092 9.462 4.808 3.61 11.4183 7.105 18.4092 9.738 6.9826 2.631 13.6309 6.098 18.4552 9.62 4.83 3.527 7.4604 6.837 7.3071 9.228a2482.955 2482.955 0 011.8539-24.98c-.0004-.014.0022-.027.0033-.04.1703-2.39-2.4297-5.722-7.2225-9.295-4.7867-3.568-11.3954-7.101-18.345-9.803-11.9475-4.646-22.0938-11.546-24.7622-16.818-.5003-.987-.7179-1.887-.6479-2.674a2348.8502 2348.8502 0 00-2.2568 25.521c.0004.014-.0024.027-.0035.041z" fill="#0A8"/>
  <path d="M43.6556 350.347c.262-2.436 3.2603-3.632 8.33-3.329 5.0708.302 11.7975 2.076 18.7142 4.898.2429-2.354.4899-4.707.741-7.06 6.9015 2.844 13.6302 4.597 18.6975 4.909 5.0688.311 8.0649-.843 8.3377-3.203.0026-.013.0021-.027.0041-.04.8892-8.278 1.8309-16.543 2.8299-24.794-.298 2.356-3.3053 3.471-8.3703 3.092-5.0634-.378-11.7723-2.22-18.6384-5.16-.2832 2.349-.5617 4.698-.8356 7.049-6.8745-2.912-13.5721-4.776-18.6374-5.148-5.0642-.372-8.0814.782-8.3827 3.214-.0027.013-.0023.028-.0047.041-.9866 8.511-1.9129 17.022-2.7854 25.531h.0001zM48.6747 306.376c.3206-2.436 3.3474-3.563 8.4079-3.139 5.0618.424 11.7425 2.361 18.5901 5.346.2984-2.347.6019-4.693.9104-7.039 6.829 3.012 13.5138 4.925 18.5713 5.359 5.0596.434 8.0806-.643 8.4106-2.988.002-.013.002-.027.005-.04 1.087-8.228 2.238-16.441 3.459-24.635-.361 2.339-3.396 3.368-8.4482 2.853-5.0502-.514-11.7068-2.534-18.4891-5.659-.3469 2.34-.6882 4.681-1.024 7.022-6.794-3.091-13.4373-5.137-18.4902-5.644-5.0515-.507-8.0987.57-8.465 3-.0027.014-.0054.027-.005.041-1.2135 8.505-2.3555 17.014-3.4325 25.524l-.0003-.001zM54.8503 262.431c.3902-2.434 3.4484-3.477 8.4938-2.908 5.0469.568 11.6673 2.7 18.4262 5.878.3649-2.337.7357-4.674 1.1124-7.009 6.7371 3.21 13.3636 5.312 18.4053 5.893 5.044.58 8.094-.405 8.491-2.731.003-.013.005-.026.008-.04 1.325-8.167 2.724-16.314 4.205-24.441-.435 2.319-3.501 3.248-8.534 2.572-5.031-.675-11.6212-2.901-18.3002-6.242-.4214 2.327-.8363 4.656-1.2448 6.986-6.6941-3.302-13.2687-5.559-18.3032-6.225-5.0329-.665-8.113.319-8.5553 2.744l-.0081.041c-1.4792 8.488-2.8755 16.982-4.1957 25.482h-.0004zM62.3815 218.569c.4696-2.426 3.5616-3.371 8.5866-2.634 5.0264.737 11.5738 3.092 18.2251 6.493a1222.89 1222.89 0 011.3464-6.969c6.6265 3.437 13.1824 5.759 18.2024 6.509 5.023.751 8.106-.128 8.581-2.432.002-.013.005-.026.007-.039 1.601-8.091 3.282-16.148 5.06-24.165-.519 2.286-3.617 3.092-8.623 2.226-5.003-.865-11.511-3.335-18.0593-6.931-.5102 2.311-1.0122 4.624-1.5063 6.938-6.5712-3.548-13.0584-6.056-18.067-6.909-5.0068-.853-8.1252.023-8.6589 2.445-.0029.013-.0055.027-.0082.041-1.7985 8.475-3.4882 16.953-5.0853 25.427h-.0005z" fill="#054"/>
  <path d="M48.6696 306.417c-.2901 2.446 2.1508 5.981 6.799 9.794 4.6552 3.819 11.1142 7.583 17.9965 10.498 6.8697 2.909 13.3811 6.637 18.0636 10.336 4.6903 3.705 7.1938 7.102 6.9508 9.478.8892-8.278 1.8305-16.543 2.8305-24.794.002-.013.002-.027.004-.04.268-2.369-2.192-5.794-6.8287-9.559-4.6282-3.759-11.0825-7.578-17.9023-10.585-6.8432-3.019-13.2462-6.883-17.8426-10.78-4.5888-3.89-6.9695-7.469-6.6333-9.912-1.2135 8.505-2.3554 17.013-3.4324 25.523-.0027.014-.0024.028-.0051.041zM54.8442 262.471c-.36 2.443 1.9794 6.054 6.52 9.999 4.5489 3.953 10.9004 7.89 17.7037 10.986 6.7874 3.089 13.2022 6.983 17.7875 10.792 4.5946 3.817 7.0146 7.265 6.7146 9.627 1.087-8.228 2.238-16.44 3.459-24.635.002-.013.005-.026.005-.039.331-2.354-2.035-5.835-6.563-9.723-4.5187-3.88-10.863-7.882-17.5893-11.086-6.7527-3.218-13.0347-7.271-17.512-11.312-4.4685-4.033-6.7371-7.694-6.3246-10.132-1.4791 8.487-2.8755 16.982-4.1957 25.481-.0027.014-.0054.027-.0051.042h-.0001zM62.3742 218.611c-.13.72-.0282 1.556.3036 2.49 1.9688 5.556 11.5335 13.516 23.2343 19.289 6.6857 3.298 12.9806 7.387 17.4469 11.326 4.477 3.947 6.795 7.455 6.427 9.8 1.325-8.168 2.724-16.315 4.205-24.442.002-.013.005-.026.007-.039.301-1.73-.856-4.138-3.319-6.947-4.184-4.777-11.7791-10.291-20.1385-14.628-6.6438-3.447-12.7832-7.717-17.1183-11.926-4.3254-4.199-6.4588-7.956-5.9544-10.392-1.7984 8.475-3.4882 16.954-5.0854 25.428a1.187 1.187 0 01-.0081.041h-.0001z" fill="#0A8"/>
  <path d="M71.54 174.789c.575-2.424 3.7086-3.248 8.6986-2.302 4.9921.946 11.4319 3.58 17.9392 7.253a899.7666 899.7666 0 011.6382-6.907c6.472 3.72 12.927 6.311 17.911 7.274 4.986.963 8.099.226 8.666-2.036.003-.013.005-.026.011-.038 1.927-7.952 3.964-15.857 6.125-23.706-.628 2.237-3.756 2.877-8.71 1.764-4.951-1.112-11.329-3.894-17.684-7.812-.626 2.281-1.24 4.565-1.845 6.852-6.3897-3.86-12.7392-6.689-17.6981-7.786-4.9563-1.096-8.116-.365-8.7708 2.046-.0027.014-.0085.027-.0112.041-2.2208 8.437-4.305 16.892-6.2689 25.357h-.001zM82.8399 131.182c.7078-2.408 3.8827-3.07 8.8112-1.856 4.9314 1.214 11.2119 4.2 17.5099 8.214.659-2.272 1.329-4.54 2.01-6.804 6.252 4.072 12.556 7.004 17.475 8.238 4.924 1.236 8.067.68 8.754-1.525.003-.013.009-.025.012-.038 2.35-7.764 4.837-15.467 7.477-23.1-.764 2.173-3.923 2.608-8.799 1.188-4.871-1.418-11.067-4.583-17.165-8.894-.767 2.237-1.521 4.479-2.264 6.725-6.142-4.242-12.303-7.463-17.1849-8.863-4.8794-1.398-8.0801-.853-8.8834 1.534-.0058.013-.0088.026-.0133.04-2.7389 8.351-5.3134 16.734-7.7398 25.141h.0003zM96.7892 87.9878c.8743-2.3839 4.0938-2.8434 8.9318-1.2983 4.84 1.5461 10.902 4.9629 16.921 9.3905a543.3079 543.3079 0 012.47-6.6544c5.955 4.5001 12.053 7.8494 16.876 9.4203 4.83 1.5731 7.998 1.2481 8.828-.8753.005-.0118.009-.0239.014-.0361 2.851-7.4849 5.865-14.8638 9.07-22.1115-.923 2.0588-4.096 2.2138-8.839.3969-4.737-1.8145-10.664-5.4637-16.379-10.2697a465.2066 465.2066 0 00-2.803 6.5193c-5.789-4.7165-11.66-8.4408-16.415-10.2296-4.751-1.7872-7.997-1.4837-9.003.8708-.006.0133-.011.0264-.017.0397-3.442 8.2331-6.65 16.5206-9.6549 24.8374h.0001zM114.281 45.4062c.678-1.4373 2.193-2.0762 4.397-1.8535 3.334.337 7.995 2.6082 13.195 6.3019 2.453 1.7421 4.965 3.7577 7.425 5.937.306-.6508.614-1.3009.923-1.9502a426.885 426.885 0 012.152-4.4456c5.5 5.0466 11.269 8.9378 15.923 10.9539 4.66 2.0192 7.835 2.0126 8.844.0215.006-.0111.011-.0227.017-.034 3.491-7.0368 7.173-13.9071 11.087-20.5585-1.123 1.8838-4.275 1.6551-8.783-.6867-4.5-2.3374-9.996-6.6137-15.122-12.0438a329.728 329.728 0 00-3.512 6.1658c-5.243-5.3194-10.653-9.6916-15.182-11.9957-4.525-2.3016-7.802-2.3349-9.084-.0519-.006.0128-.014.0257-.021.0385-3.817 6.9224-7.388 13.9252-10.739 20.9742a458.5485 458.5485 0 00-1.52 3.2271z" fill="#054"/>
  <path d="M178.263 39.7469c1.107-1.9179.126-5.8355-2.576-11.0642-2.666-5.1583-6.941-11.4369-11.678-17.1114-4.698 7.0234-9.077 14.255-13.181 21.6425 5.202 5.2783 9.945 11.1903 12.997 16.1762 3.084 5.04 4.324 8.9233 3.333 10.9478 3.491-7.0369 7.172-13.9072 11.086-20.5588a.509.509 0 00.019-.0321zM82.8283 131.222c-.6782 2.42 1.1764 6.352 5.1962 10.855 4.0328 4.518 9.8577 9.184 16.2635 13.054 6.373 3.851 12.324 8.449 16.458 12.705 4.151 4.272 6.197 7.914 5.656 10.198 1.927-7.952 3.964-15.857 6.125-23.706.002-.012.008-.025.011-.037.601-2.257-1.336-5.945-5.347-10.336-3.992-4.372-9.788-9.16-16.019-13.219-6.276-4.087-11.9346-8.956-15.8052-13.627-3.8566-4.654-5.5617-8.666-4.7867-11.068-2.7389 8.351-5.3134 16.734-7.7398 25.141-.0028.014-.0085.027-.0118.04h-.0002zM96.7748 88.0263c-.6969 1.976.258 5.1129 2.7525 8.8723 3.5817 5.3904 9.8767 11.4174 17.1347 16.4294 6.123 4.228 11.797 9.171 15.674 13.638 3.897 4.489 5.739 8.214 5.076 10.444 2.351-7.764 4.838-15.467 7.478-23.1.005-.012.008-.024.012-.036.149-.442.2-.95.153-1.521-.429-5.159-8.966-15.0329-19.943-23.3283-5.984-4.5214-11.271-9.7885-14.78-14.7695-3.493-4.9579-4.865-9.1362-3.888-11.5063-3.442 8.233-6.6498 16.5205-9.6548 24.8372-.0058.0133-.0097.0267-.0145.0402h.0001zM114.263 45.4443c-1.073 2.3481.125 6.6007 3.418 11.702 3.31 5.128 8.386 10.5872 14.198 15.3228 5.759 4.6927 11.063 10.0634 14.602 14.769 3.566 4.7398 5.155 8.5452 4.348 10.6968 2.852-7.485 5.865-14.8638 9.071-22.1116.006-.0115.01-.0234.015-.035 1.236-2.8579-1.874-9.0133-7.941-16.3348-2.795-3.3749-6.114-6.8595-9.6-10.0582-5.532-5.0769-10.266-10.8418-13.239-16.2014-2.956-5.3279-3.848-9.6908-2.594-11.9902-3.817 6.9227-7.388 13.9257-10.739 20.9749a460.4912 460.4912 0 00-1.52 3.2263.646.646 0 01-.019.0394zM43.6508 350.387c-.2312 2.444 2.2928 5.912 7.0269 9.612 4.74 3.705 11.2836 7.324 18.2254 10.087 3.4953 1.392 6.9365 3.008 10.1157 4.749 9.5652 5.238 15.5971 10.945 15.301 14.555.3786-4.345.7696-8.688 1.1734-13.029.3693-3.964.7486-7.925 1.1387-11.883.0026-.013.0022-.027.0039-.04.2154-2.382-2.3211-5.759-7.0445-9.421-4.7162-3.657-11.2574-7.32-18.1512-10.161-6.9141-2.849-13.4151-6.552-18.1089-10.323-4.6873-3.766-7.1619-7.273-6.8908-9.718-.9866 8.511-1.9129 17.022-2.7855 25.531-.0026.013-.0022.027-.0043.041h.0002zM71.5311 174.828c-.5452 2.435 1.5193 6.241 5.768 10.519 4.2595 4.29 10.3187 8.663 16.903 12.218 6.5599 3.542 12.7129 7.857 17.0389 11.941 4.339 4.095 6.537 7.668 6.09 9.992 1.6-8.091 3.281-16.149 5.06-24.165.003-.013.005-.026.008-.039.491-2.304-1.628-5.915-5.865-10.106-4.222-4.177-10.263-8.646-16.7186-12.357-6.4926-3.732-12.4276-8.271-16.5635-12.691-4.1237-4.407-6.0691-8.285-5.4432-10.71-2.2208 8.437-4.3051 16.892-6.269 25.357a2.9706 2.9706 0 01-.0082.041h-.0004z" fill="#0A8"/>
</svg>