<svg width="173" height="216" fill="none" xmlns="http://www.w3.org/2000/svg">
  <g clip-path="url(#clip0)">
    <path d="M124.02 21.1501c-11.774-5.124-32.9001 1.5963-42.3319 18.5539-1.2167 2.1879-2.1553 4.602-2.8631 7.1748 12.4797-5.0108 25.441-5.661 34.706-1.6287 9.265 4.0323 17.621 13.9602 22.459 26.5077 1.4-2.2712 2.528-4.6028 3.299-6.9842 5.983-18.4588-3.496-38.4993-15.269-43.6235z" fill="#A02C2C"/>
    <path d="M124.506 21.3736c.011.0049.022.0098.032.0168-.011-.0049-.022-.0121-.033-.017l.001.0002zm.033.017c11.498 5.5231 20.566 25.2033 14.683 43.3546-17.096 44.8308-83.4797 55.7438-128.6727 84.3158l6.9407 31.85c45.4203-26.742 113.598-39.053 130.504-91.1062 9.319-28.755-5.193-59.9435-23.455-68.4142z" fill="#C83737"/>
    <path d="M124.506 21.3736c.011.0049.022.0098.032.0168-.011-.0049-.022-.0121-.033-.017l.001.0002zm.033.017c11.498 5.5231 20.566 25.2033 14.683 43.3546-17.096 44.8308-83.4797 55.7438-128.6727 84.3158l6.9407 31.85c45.4203-26.742 113.598-39.053 130.504-91.1062 9.319-28.755-5.193-59.9435-23.455-68.4142z" fill="#C83737"/>
    <path d="M87.7226 111.864c-11.9762 5.97-24.8829 11.393-37.649 17.049.7321 2.655 1.4996 5.298 2.2931 7.928 2.4007 7.883 5.0814 15.679 7.8011 23.462 12.8943-5.642 25.8835-11.342 37.8741-17.914-1.6228-4.656-3.2576-9.306-4.8548-13.961-1.8849-5.491-3.7477-11.005-5.4645-16.564z" fill="#A02C2C"/>
    <path d="M123.528 20.9423c-.012-.0049-.024-.0077-.035-.0126.011.0049.022.0099.034.0124l.001.0002zm-.035-.0126c-18.645-7.5924-51.3595 3.0417-66.0523 29.4581C30.8674 98.2353 68.3225 156.52 79.7046 207.985l9.2368-29.17 18.8016 12.545C97.8552 138.814 60.6001 82.7936 81.758 39.7296c9.2747-16.675 29.857-23.4511 41.735-18.7999z" fill="#D35F5F"/>
  </g>
  <defs>
    <clipPath id="clip0">
      <path fill="#fff" transform="rotate(23.52 37.7119 181.1492)" d="M0 0h106v189H0z"/>
    </clipPath>
  </defs>
</svg>