<?xml version="1.0" encoding="UTF-8" standalone="no"?>
<svg
   xmlns:dc="http://purl.org/dc/elements/1.1/"
   xmlns:cc="http://creativecommons.org/ns#"
   xmlns:rdf="http://www.w3.org/1999/02/22-rdf-syntax-ns#"
   xmlns:svg="http://www.w3.org/2000/svg"
   xmlns="http://www.w3.org/2000/svg"
   xmlns:sodipodi="http://sodipodi.sourceforge.net/DTD/sodipodi-0.dtd"
   xmlns:inkscape="http://www.inkscape.org/namespaces/inkscape"
   width="164"
   height="164"
   fill="none"
   version="1.1"
   id="svg4962"
   sodipodi:docname="ring_bottom.svg"
   inkscape:version="1.0.2 (e86c870879, 2021-01-15)">
  <metadata
     id="metadata4968">
    <rdf:RDF>
      <cc:Work
         rdf:about="">
        <dc:format>image/svg+xml</dc:format>
        <dc:type
           rdf:resource="http://purl.org/dc/dcmitype/StillImage" />
      </cc:Work>
    </rdf:RDF>
  </metadata>
  <defs
     id="defs4966" />
  <sodipodi:namedview
     pagecolor="#ffffff"
     bordercolor="#666666"
     borderopacity="1"
     objecttolerance="10"
     gridtolerance="10"
     guidetolerance="10"
     inkscape:pageopacity="0"
     inkscape:pageshadow="2"
     inkscape:window-width="1367"
     inkscape:window-height="1023"
     id="namedview4964"
     showgrid="false"
     inkscape:zoom="5.0792683"
     inkscape:cx="82"
     inkscape:cy="82"
     inkscape:window-x="281"
     inkscape:window-y="701"
     inkscape:window-maximized="0"
     inkscape:current-layer="svg4962" />
  <path
     d="M163.542 30.8501c-4.354-3.4344-10.437-4.8861-17.725-4.3776-10.055.7025-22.448 5.0678-36.05 12.978-27.2036 15.8209-54.4617 43.0733-70.2865 70.2725-7.9115 13.598-12.2781 25.988-12.9809 36.042-.5095 7.291.9439 13.376 4.3831 17.73a96.0057 96.0057 0 01-13.3752-11.141c-5.7147-5.714-10.548-11.974-14.5095-18.61-5.1613-8.66-3.4992-22.749 3.7605-38.8985 7.2601-16.1494 20.0706-34.3261 36.9231-51.175C60.5344 26.8212 78.7158 14.0124 94.8683 6.7539 111.022-.5053 125.108-2.1608 133.769 2.9996l.036-.0361c6.637 3.9609 12.9 8.7939 18.616 14.508a95.9088 95.9088 0 0111.142 13.3692l-.021.0094z"
     fill="#F60"
     id="path4958" />
  <path
     d="M75.669 17.432c14.5669 2.7314 28.622 8.8375 40.915 18.3186 10.928-5.5676 20.894-8.6849 29.245-9.2686 7.288-.5086 13.37.9427 17.724 4.3776a95.933 95.933 0 00-11.143-13.3698c-5.715-5.7143-11.978-10.5464-18.614-14.5084l-.036.036c-8.661-5.1607-22.748-3.5053-38.9015 3.7536-6.1701 2.773-12.6366 6.3616-19.211 10.6691l.0215-.0081z"
     fill="#FF5000"
     id="path4960" />
</svg>
