<svg width="258" height="258" fill="none" xmlns="http://www.w3.org/2000/svg">
  <path d="M214.226 25.4839l-.012-.007c-12.18-7.4762-24.57-12.4107-35.003-14.3903-10.434-1.9798-18.884-.9817-23.216 3.2371-3.318 3.2365-6.295 6.9287-8.831 11.0589a57.6295 57.6295 0 00-4.632 9.3558c2.06-2.6134 5.407-4.3102 9.731-5.0306 5.963-.9936 13.799-.1772 22.835 2.5385 9.038 2.7167 18.484 7.0987 27.298 12.5092l11.83-19.2716z" fill="#F60"/>
  <path d="M224.584 106.434c-1.098-4.319-3.697-9.1618-7.549-14.1536-6.487-8.4041-16.492-17.2162-28.667-24.691-8.81-5.4086-16.989-11.8439-23.5-18.6704-6.512-6.8284-10.787-13.4466-12.6-19.2128-1.316-4.1818-1.317-7.9338.081-10.9532a57.5042 57.5042 0 00-6.246 8.3645c-2.535 4.1302-4.48 8.4581-5.864 12.8812-1.802 5.7718 1.134 13.7577 7.623 22.1644 6.488 8.4071 16.496 17.2216 28.676 24.6977 8.811 5.4088 16.991 11.8454 23.503 18.6722 6.512 6.828 10.788 13.446 12.601 19.213 1.314 4.179 1.316 7.929-.08 10.947l.013.011a57.6206 57.6206 0 006.243-8.365c2.535-4.131 4.48-8.458 5.864-12.881l-.026-.016c.732-2.344.683-5.054-.069-8.009l-.003.001z" fill="#FC0"/>
  <path d="M222.357 119.728c-2.06 2.606-5.402 4.299-9.719 5.019-5.963.993-13.8.177-22.836-2.539-9.037-2.716-18.482-7.098-27.295-12.508v.001c-12.18-7.477-24.571-12.4108-35.004-14.3903-10.434-1.9798-18.884-.982-23.215 3.2367-3.318 3.2366-6.2962 6.9286-8.8315 11.0586a57.522 57.522 0 00-4.6318 9.357c2.0597-2.614 5.4063-4.311 9.7303-5.031 5.963-.994 13.799-.177 22.836 2.538 9.038 2.717 18.483 7.099 27.297 12.51v-.001c12.175 7.471 24.56 12.401 34.989 14.38 10.434 1.98 18.88.98 23.211-3.239l.005.021c3.318-3.237 6.296-6.93 8.831-11.06a57.58 57.58 0 004.633-9.353z" fill="#F60"/>
  <path d="M172.881 190.66c-1.098-4.319-3.697-9.162-7.55-14.153-6.486-8.404-16.491-17.216-28.666-24.691l-11.83 19.271c8.811 5.409 16.991 11.846 23.502 18.673 6.513 6.828 10.789 13.446 12.602 19.212 1.314 4.18 1.316 7.929-.08 10.948l.012.011c2.291-2.55 4.386-5.34 6.244-8.365 2.535-4.131 4.48-8.458 5.864-12.881l-.026-.016c.732-2.345.683-5.055-.069-8.01l-.003.001zm-36.22-38.843c-8.812-5.409-16.993-11.846-23.505-18.674-6.512-6.828-10.788-13.446-12.601-19.212-1.3149-4.182-1.3167-7.934.081-10.954a57.5266 57.5266 0 00-6.2456 8.365c-2.5352 4.13-4.4796 8.458-5.8636 12.881-1.8015 5.772 1.1345 13.757 7.6227 22.164 6.4885 8.407 16.4965 17.222 28.6765 24.698l11.835-19.268z" fill="#FC0"/>
  <path d="M160.855 219.922s.001.001.016-.026c.001 0-.016.026-.016.026z" fill="#F60"/>
  <path d="M171.744 202.215c-2.06 2.607-5.403 4.3-9.72 5.019-5.962.994-13.799.177-22.836-2.539-9.037-2.716-18.482-7.098-27.295-12.507-12.1801-7.476-24.57-12.411-35.0034-14.39-10.4335-1.98-18.8841-.982-23.2158 3.237-3.3177 3.236-6.2951 6.929-8.8304 11.059a57.5534 57.5534 0 00-4.6319 9.356c2.0597-2.613 5.4063-4.311 9.7308-5.031 5.9623-.994 13.7987-.177 22.835 2.538 9.0382 2.717 18.4835 7.1 27.2977 12.51v-.001c12.175 7.471 24.56 12.402 34.989 14.381 10.434 1.98 18.88.979 23.211-3.239l.005.021c3.317-3.237 6.295-6.93 8.831-11.06a57.6305 57.6305 0 004.633-9.354z" fill="#F60"/>
  <path d="M87.1135 232.568c-8.812-5.41-16.9925-11.846-23.5046-18.674-6.5123-6.828-10.7879-13.447-12.6009-19.213-1.3151-4.182-1.3169-7.934.0813-10.953a57.4977 57.4977 0 00-6.246 8.364c-2.5352 4.131-4.4799 8.458-5.864 12.881-1.8015 5.772 1.1347 13.758 7.6229 22.165 6.4881 8.406 16.4966 17.222 28.6764 24.698l11.8349-19.268z" fill="#FC0"/>
</svg>