<?xml version="1.0" encoding="UTF-8" standalone="no"?>
<svg
   xmlns:dc="http://purl.org/dc/elements/1.1/"
   xmlns:cc="http://creativecommons.org/ns#"
   xmlns:rdf="http://www.w3.org/1999/02/22-rdf-syntax-ns#"
   xmlns:svg="http://www.w3.org/2000/svg"
   xmlns="http://www.w3.org/2000/svg"
   xmlns:sodipodi="http://sodipodi.sourceforge.net/DTD/sodipodi-0.dtd"
   xmlns:inkscape="http://www.inkscape.org/namespaces/inkscape"
   width="56.555588mm"
   height="24.857227mm"
   viewBox="0 0 56.555588 24.857228"
   version="1.1"
   id="svg1556"
   inkscape:version="1.0.2 (e86c870879, 2021-01-15)"
   sodipodi:docname="logo-short-mono.svg">
  <defs
     id="defs1550" />
  <sodipodi:namedview
     id="base"
     pagecolor="#ffffff"
     bordercolor="#666666"
     borderopacity="1.0"
     inkscape:pageopacity="0.0"
     inkscape:pageshadow="2"
     inkscape:zoom="0.98994949"
     inkscape:cx="-226.10037"
     inkscape:cy="-34.812328"
     inkscape:document-units="mm"
     inkscape:current-layer="layer1"
     inkscape:document-rotation="0"
     showgrid="false"
     fit-margin-top="0"
     fit-margin-left="0"
     fit-margin-right="0"
     fit-margin-bottom="0"
     inkscape:window-width="1920"
     inkscape:window-height="1027"
     inkscape:window-x="0"
     inkscape:window-y="701"
     inkscape:window-maximized="1" />
  <metadata
     id="metadata1553">
    <rdf:RDF>
      <cc:Work
         rdf:about="">
        <dc:format>image/svg+xml</dc:format>
        <dc:type
           rdf:resource="http://purl.org/dc/dcmitype/StillImage" />
        <dc:title></dc:title>
      </cc:Work>
    </rdf:RDF>
  </metadata>
  <g
     inkscape:label="Layer 1"
     inkscape:groupmode="layer"
     id="layer1"
     transform="translate(-196.82711,-227.97617)">
    <text
       xml:space="preserve"
       style="font-size:11.2889px;line-height:125%;font-family:sigmar;-inkscape-font-specification:sigmar;fill:#1a1a1a;stroke:#ffffff;stroke-width:4.665"
       x="68.595131"
       y="161.69368"
       id="text2158"><tspan
         sodipodi:role="line"
         id="tspan2156"
         x="68.595131"
         y="161.69368"
         style="stroke-width:4.665"></tspan></text>
    <path
       d="m 200.61726,238.54008 q -0.80151,0 -1.61431,-0.18062 -0.80152,-0.19191 -1.32081,-0.51929 -0.13546,-0.4064 -0.2032,-0.8128 -0.0677,-0.4064 -0.16933,-1.16276 v -0.0339 q 0.0226,-0.13547 0.14676,-0.2032 0.42897,0.25964 0.82409,0.39511 0.39511,0.12418 0.86924,0.12418 h 0.27094 l 0.18062,0.0113 q 0.25964,0 0.53058,-0.079 0.14675,-0.0564 0.2032,-0.21449 l -0.59832,-0.29351 q -0.68862,-0.32738 -1.24177,-0.69991 -0.57574,-0.41769 -0.82409,-1.06116 -0.12418,-0.34995 -0.12418,-0.76764 0,-1.016 0.62089,-1.63689 0.54186,-0.55316 1.46755,-0.79022 0.80152,-0.19192 1.76107,-0.19192 0.56445,0 1.55787,0.12418 0.1016,0.0226 0.28222,0.0452 l 0.33867,0.0677 q 0.38382,0.0677 0.56445,0.0677 0.0113,0 0.0339,0.0339 0.0339,0.0339 0.0565,0.0564 0.0451,0.079 0.0903,0.079 h 0.0113 0.0113 l 0.0226,0.23706 q 0,0.16934 0.0339,0.36125 0.0339,0.28222 0.0339,0.6096 0,0.28222 -0.0339,0.4064 -0.0564,0.22578 -0.2032,0.32738 l -1.04987,-0.13547 h -0.11289 -0.15804 q -0.38382,0 -0.88054,0.079 l -0.37253,0.079 q -0.13547,0.0226 -0.13547,0.0452 0,0.27094 0.34996,0.508 0.16933,0.0903 0.33867,0.15805 0.16933,0.0564 0.21449,0.079 0.83537,0.23707 1.44498,0.82409 0.28222,0.27093 0.44026,0.57573 0.15805,0.3048 0.15805,0.58703 0,0.16933 -0.0452,0.36124 -0.079,0.84667 -0.64347,1.46756 -0.55315,0.55315 -1.38853,0.8128 -0.72249,0.25964 -1.73849,0.25964 z"
       style="font-style:normal;font-variant:normal;font-weight:normal;font-stretch:normal;font-size:11.2889px;line-height:125%;font-family:'Sigmar One';-inkscape-font-specification:'Sigmar One';word-spacing:0.902229px;fill:#24282b;fill-opacity:1;stroke:none;stroke-width:0.965"
       id="path2496" />
    <path
       d="m 208.52832,238.28044 q -0.15805,0 -0.23707,-0.21449 -0.16933,-0.37253 -0.16933,-1.35467 0,-0.94827 0.0339,-2.17876 0.0113,-0.39511 0.0113,-1.2192 l -0.0339,-0.0452 h -1.25307 q -0.14676,0 -0.23707,-0.15805 -0.079,-0.16933 -0.12418,-0.46284 -0.0564,-0.33867 -0.0564,-0.97085 v -0.15804 q 0,-0.11289 0.0113,-0.18063 v -0.16933 -0.1016 q 0,-0.0677 0.0677,-0.11289 0.0677,-0.0564 0.15805,-0.079 0.11289,-0.0339 0.33866,-0.0339 h 0.85796 q 0.28222,0 0.42898,0.0113 l 0.41769,0.0113 h 4.064 q 0.44027,0 0.57574,0.0113 0.0564,0.0113 0.15804,0.0226 0.1016,0.0113 0.14676,0.0451 0.079,0.0339 0.0903,0.0903 0.0226,0.0452 0.0226,0.14676 v 1.86267 q 0,0.12418 -0.1016,0.16933 -0.0677,0.0226 -0.18062,0.0226 h -0.36124 -0.37254 q -0.25964,0 -0.39511,-0.0226 h -0.33866 q -0.10161,0 -0.11289,0.0452 0,0.0113 -0.0113,0.0339 -0.0113,0.0113 -0.0113,0.0339 v 0.16933 0.38383 q 0,0.16933 -0.0113,0.25964 0,0.32738 -0.0452,1.43369 l -0.0226,0.33867 q -0.0226,0.47413 -0.0452,0.68862 v 1.07245 q 0,0.38382 -0.15804,0.48542 -0.14676,0.0564 -0.2032,0.0677 l -0.28223,0.0113 q -0.44026,0 -0.62089,0.0226 l -1.18533,0.0113 q -0.22578,0.0113 -0.8128,0.0113 z"
       style="font-style:normal;font-variant:normal;font-weight:normal;font-stretch:normal;font-size:11.2889px;line-height:125%;font-family:'Sigmar One';-inkscape-font-specification:'Sigmar One';word-spacing:0.902229px;fill:#24282b;fill-opacity:1;stroke:none;stroke-width:0.965"
       id="path2498" />
    <path
       d="m 222.20224,238.65297 q -0.0452,0 -0.079,-0.0113 -0.16934,-0.1016 -0.28223,-0.22577 -0.0339,-0.0564 -0.0452,-0.0564 -0.0113,-0.0226 -0.0339,-0.0226 l -0.0226,-0.0113 q -0.0451,-0.0452 -0.0451,-0.0452 l -0.95956,-1.4224 q -0.0677,-0.14676 -0.19191,-0.31609 -0.079,-0.079 -0.13547,-0.16934 -0.0451,-0.0677 -0.0903,-0.0677 -0.0339,0 -0.0564,0.0339 -0.0113,0.0339 -0.0226,0.0903 -0.0339,0.3048 -0.0339,0.82409 0,0.49671 -0.0564,0.80151 -0.0339,0.14676 -0.1016,0.14676 h -0.0677 q -0.0226,-0.0113 -0.0452,-0.0113 -0.0113,-0.0113 -0.0113,-0.0113 -0.39511,0.0339 -1.18533,0.079 -0.76765,0.0452 -1.17405,0.0452 -0.11289,0 -0.18062,-0.0226 h -0.24836 -0.2032 -0.1016 l -0.4064,-0.13547 -0.0339,-0.0903 q 0,-0.0113 -0.0113,-0.0452 0,-0.0339 0,-0.0903 0,-0.0677 -0.0226,-0.24835 -0.0565,-0.68862 -0.0452,-0.54187 -0.0226,-0.29351 -0.079,-1.016 l -0.0339,-0.41769 q 0,-0.2032 -0.0113,-0.36124 -0.0113,-0.15805 -0.0226,-0.27094 l -0.0226,-0.24835 q -0.0339,-0.46285 -0.0339,-0.86925 0,-0.0113 0,-0.0339 0.0113,-0.0226 0.0113,-0.0903 0.0226,-0.0677 0.0226,-0.21449 l 0.0113,-0.2032 0.0113,-0.13546 q 0,-0.23707 -0.0226,-0.68863 -0.0452,-0.28222 -0.0452,-0.72249 0,-0.63217 0.079,-0.92569 0.10161,-0.4064 0.33867,-0.4064 1.27565,0 2.59645,0.0339 0.29351,0 0.88053,0.0226 l 0.44027,0.0113 q 0.90311,0.0226 1.25307,0.0226 1.45627,0.0677 2.20133,0.73377 0.33867,0.28223 0.49672,0.67734 0.16933,0.39511 0.16933,0.84667 0,0.51928 -0.19191,0.95955 -0.15805,0.34996 -0.45156,0.64347 -0.28222,0.28222 -0.64347,0.45156 0.0677,0.0339 0.18063,0.14675 0.0452,0.0565 0.15804,0.14676 l 0.15805,0.11289 q 0.0339,0.0564 0.079,0.11288 0.0451,0.0452 0.0903,0.1016 l 0.53058,0.65476 q 0.36124,0.46285 0.46284,0.67734 0.079,0.14675 0.079,0.22577 0,0.11289 -0.0903,0.2032 -0.0903,0.0903 -0.27093,0.22578 -0.13547,0.1016 -0.31609,0.19191 -0.16933,0.0903 -0.25964,0.16934 l -0.41769,0.22577 q -0.22578,0.12418 -0.48543,0.21449 -0.0113,0 -0.0339,0.0113 -0.0113,0.0113 -0.0452,0.0226 -0.0677,0.0339 -0.37253,0.12418 -0.0565,0.0339 -0.19191,0.0564 -0.0339,0.0226 -0.079,0.0339 -0.0452,0.0113 -0.0677,0.0113 h -0.0564 q -0.0113,0.0564 -0.0452,0.0564 h -0.0339 z m -1.85138,-3.98498 q 0.34995,0 0.55315,-0.34996 0.19192,-0.31608 0.21449,-0.72248 0.0226,-0.23707 0.0226,-0.56445 v -0.12418 q 0,-0.25964 -0.0903,-0.54187 -0.0903,-0.36124 -0.37253,-0.51928 -0.12418,-0.1016 -0.32738,-0.1016 -0.0565,0 -0.0903,0.13546 -0.1016,0.24836 -0.11289,0.79023 -0.0452,0.22577 -0.0452,0.53057 l -0.0113,0.33867 q -0.0226,0.65476 -0.0226,1.08373 0,0.0113 0.0113,0.0226 0.0113,0.0113 0.0226,0.0113 l 0.079,0.0113 z"
       style="font-style:normal;font-variant:normal;font-weight:normal;font-stretch:normal;font-size:11.2889px;line-height:125%;font-family:'Sigmar One';-inkscape-font-specification:'Sigmar One';word-spacing:0.902229px;fill:#24282b;fill-opacity:1;stroke:none;stroke-width:0.965"
       id="path2500" />
    <path
       d="m 235.62521,238.25786 q -0.19191,0 -0.24836,-0.24835 -0.0564,-0.12418 -0.0564,-0.45156 0,-0.98214 -0.0226,-1.74978 -0.0339,-1.10631 -0.0339,-2.3368 v -2.48356 q 0,-0.1016 0.0903,-0.19191 0.1016,-0.1016 0.2032,-0.1016 l 1.29823,0.0113 q 0.36124,0.0113 0.94827,0.0113 0.84666,0 1.30951,-0.0113 l 0.41769,-0.0113 q 0.67733,-0.0226 1.1176,-0.0226 0.7112,0 1.35467,0.2032 0.75635,0.22578 1.23049,0.77893 0.53058,0.59832 0.53058,1.61432 0,1.71591 -0.86925,2.48355 -0.76765,0.72249 -2.29165,0.72249 h -1.54658 q 0.0113,0.25965 0.0113,0.55316 0,0.1016 -0.0113,0.24836 0,0.13546 0,0.37253 0,0.37253 -0.15804,0.47413 -0.12418,0.1016 -0.46285,0.1016 -0.49671,0 -0.68862,0.0113 -0.77893,0 -1.24178,0.0226 z m 4.04142,-3.13831 q 0.23707,0 0.34996,-0.45156 0.0903,-0.3048 0.13547,-0.90311 0.0226,-0.32738 0.0226,-0.73378 v -0.12418 q 0,-0.18062 -0.0565,-0.54187 -0.0452,-0.2032 -0.1016,-0.31608 -0.0564,-0.12418 -0.14676,-0.2032 -0.0903,-0.1016 -0.2032,-0.1016 -0.0564,0 -0.1016,0.0452 -0.0339,0.0452 -0.0677,0.11289 -0.12418,0.2032 -0.22578,0.90311 -0.0339,0.2032 -0.0564,0.6096 -0.0565,0.62089 -0.0565,1.65947 0,0 0.0113,0.0113 0.0113,0.0113 0.0452,0.0226 l 0.13547,0.0113 z"
       style="font-style:normal;font-variant:normal;font-weight:normal;font-stretch:normal;font-size:11.2889px;line-height:125%;font-family:'Sigmar One';-inkscape-font-specification:'Sigmar One';word-spacing:0.902229px;fill:#24282b;fill-opacity:1;stroke:none;stroke-width:0.965"
       id="path2504" />
    <path
       d="m 246.86103,238.26915 q -0.0565,0 -0.16934,-0.0113 -0.11288,-0.0226 -0.27093,-0.0339 l -0.23707,-0.0564 q -0.0564,-0.0113 -0.0903,-0.0226 -0.0226,-0.0226 -0.0113,-0.0339 0,-0.29352 -0.0339,-0.77894 0,-0.16933 -0.0113,-0.29351 -0.0113,-0.13547 -0.0226,-0.22578 l -0.0226,-0.48542 q 0,-0.19191 -0.0226,-0.48542 l -0.0113,-0.34996 q 0,-0.42898 -0.0113,-0.66604 -0.0113,-0.23707 -0.0113,-0.99343 0,-0.7112 0.0113,-1.46756 0.0113,-0.75635 0.0677,-1.43369 0,-0.12417 0.27093,-0.2032 0.16934,-0.0226 0.56445,-0.0226 0.9144,0 1.34338,-0.0339 1.33209,-0.0226 2.00942,-0.0226 h 0.49671 q 0.92569,0.0226 1.42241,0.0677 0.18062,0 0.25964,0.42897 0.0339,0.079 0.079,0.4064 0.0339,0.16934 0.0903,0.41769 0.0113,0.0677 0,0.13547 0,0.0564 0,0.0677 -0.0113,0.11289 -0.12417,0.11289 -0.0452,-0.0113 -0.13547,-0.0113 -0.47413,0 -1.16276,0.079 l -0.59831,0.0452 q -0.37253,0.0452 -0.58702,0.0564 -0.0339,0 -0.0903,0.13546 -0.0452,0.14676 -0.1016,0.67734 l -0.0226,0.28222 q 0,0.14676 0.0339,0.19191 0.0339,0.0339 0.14675,0.0339 h 1.00471 q 0.44027,0 1.00472,0.0564 h 0.13546 q 0.14676,0.0339 0.18063,0.11289 0.0451,0.0677 0.0564,0.14676 l 0.0452,1.00471 v 0.0339 q 0,0.19191 -0.40641,0.22577 -0.23706,0.0565 -0.90311,0.0565 -0.57573,0 -0.74506,-0.0113 -0.32738,0 -0.39512,0.0113 -0.12417,0.0339 -0.15804,0.13546 -0.0339,0.0903 -0.0339,0.31609 0,0.14676 -0.0226,0.41769 -0.0113,0.13547 -0.0113,0.42898 0.73377,0 1.08373,-0.0226 0.38382,-0.0339 1.08373,-0.0339 0.0452,0 0.0903,0.079 0.0564,0.11289 0.18062,0.508 0.0677,0.22578 0.13547,0.56444 0.0226,0.079 0.0226,0.16934 0,0.23707 -0.22578,0.23707 -0.29351,0 -0.79022,0.0226 -0.25964,0.0226 -0.8128,0.0226 -1.18533,0 -1.78365,0.0113 z"
       style="font-style:normal;font-variant:normal;font-weight:normal;font-stretch:normal;font-size:11.2889px;line-height:125%;font-family:'Sigmar One';-inkscape-font-specification:'Sigmar One';word-spacing:0.902229px;fill:#24282b;fill-opacity:1;stroke:none;stroke-width:0.965"
       id="path2506" />
    <path
       d="m 202.09144,251.54499 q -1.16053,0 -2.33741,-0.26153 -1.16053,-0.27787 -1.91242,-0.75189 -0.19615,-0.58844 -0.29422,-1.17688 -0.0981,-0.58844 -0.24518,-1.68359 v -0.049 q 0.0327,-0.19615 0.21249,-0.29422 0.62113,0.37594 1.19322,0.57209 0.57209,0.1798 1.2586,0.1798 h 0.3923 l 0.26152,0.0164 q 0.37595,0 0.76824,-0.11442 0.21249,-0.0817 0.29422,-0.31057 l -0.86631,-0.42498 q -0.99708,-0.47402 -1.79801,-1.01342 -0.83362,-0.60478 -1.19322,-1.53648 -0.1798,-0.50671 -0.1798,-1.11149 0,-1.4711 0.899,-2.3701 0.78459,-0.80093 2.12492,-1.14418 1.16053,-0.27788 2.5499,-0.27788 0.81727,0 2.25568,0.1798 0.14711,0.0327 0.40863,0.0654 l 0.49037,0.0981 q 0.55575,0.0981 0.81727,0.0981 0.0164,0 0.049,0.049 0.049,0.049 0.0817,0.0817 0.0654,0.11442 0.13076,0.11442 h 0.0163 0.0163 l 0.0327,0.34326 q 0,0.24518 0.049,0.52305 0.049,0.40864 0.049,0.88266 0,0.40864 -0.049,0.58844 -0.0817,0.32691 -0.29422,0.47402 l -1.52013,-0.19615 h -0.16345 -0.22884 q -0.55575,0 -1.27495,0.11442 l -0.5394,0.11442 q -0.19615,0.0327 -0.19615,0.0654 0,0.39229 0.50671,0.73555 0.24518,0.13076 0.49037,0.22884 0.24518,0.0817 0.31056,0.11441 1.20957,0.34326 2.09223,1.19323 0.40863,0.39229 0.63747,0.83362 0.22884,0.44133 0.22884,0.84996 0,0.24519 -0.0654,0.52306 -0.11442,1.22591 -0.9317,2.12491 -0.80093,0.80093 -2.01049,1.17688 -1.04612,0.37595 -2.51721,0.37595 z"
       style="font-style:normal;font-variant:normal;font-weight:normal;font-stretch:normal;font-size:16.3455px;line-height:125%;font-family:'Sigmar One';-inkscape-font-specification:'Sigmar One';fill:#24282b;fill-opacity:1;stroke:none;stroke-width:0.798428"
       id="path2509" />
    <path
       d="m 213.69965,251.25077 q -1.02977,0 -1.53648,-0.0327 -0.78458,-0.0327 -1.37302,-0.19615 -0.0654,0 -0.13077,-0.19615 -0.049,-0.1471 -0.049,-0.22883 l -0.31057,-5.94976 v -0.32691 q 0,-0.11442 0.0163,-0.40864 0.0163,-0.29422 0.0163,-0.78459 l 0.0327,-0.84996 q 0,-0.32691 0.0163,-0.49037 0,-0.49036 0.0327,-0.94804 0,-0.14711 0,-0.19614 0.0164,-0.0654 0.0164,-0.0817 0.0327,-0.0164 0.11442,-0.0817 0.0981,-0.0817 0.16345,-0.13076 0.16346,-0.14711 0.47402,-0.14711 h 0.94804 0.26153 q 0.16345,0.0163 0.60478,0.0163 0.47402,0 0.76824,0.0164 h 0.75189 0.60479 0.24518 q 0.42498,0 0.57209,0.13076 0.19615,0.14711 0.19615,0.5721 v 0.16345 q 0,0.0654 -0.0164,0.13077 -0.0163,0.0654 -0.0163,0.13076 l -0.0327,0.26153 -0.0163,0.19614 q 0,0.0654 0.0327,0.13077 0.0163,0.0654 0.0163,0.16345 0,0.44133 -0.0163,0.63748 l -0.0163,0.67016 h 0.42498 q 0.21249,0.049 0.45767,0.049 0.32691,0.0327 0.45768,0.0327 0.14711,0.0327 0.44133,0.0327 l 0.0163,-1.11149 q 0.0163,-0.14711 0.0163,-0.42499 l 0.0163,-0.67016 v -0.13077 q 0,-0.26152 0.0163,-0.45767 0.0163,-0.21249 0.0654,-0.29422 0.0981,-0.13076 0.22884,-0.13076 0.0981,-0.0327 0.45767,-0.0327 l 0.44133,-0.0163 q 0.47402,0 0.78458,-0.0327 h 0.9317 q 0.65382,0 0.94804,-0.0164 0.57209,0 0.78458,-0.0163 h 0.44133 q 0.39229,0 0.52305,0.0981 0.0981,0.0654 0.13077,0.19615 0.0327,0.11442 0.0327,0.34325 0,0.63748 -0.0327,1.71628 -0.0654,1.04611 -0.0654,1.68359 0,0.0981 0.0327,0.16345 0,0.0654 0.0163,0.11442 0.0163,0.0327 0.0163,0.049 l -0.40864,6.21129 q 0,0.0817 -0.11442,0.22884 -0.14711,0.1471 -0.26153,0.1471 h -4.49501 q -0.049,0 -0.0981,-0.0817 -0.049,-0.0817 -0.0817,-0.21249 -0.0163,-0.0817 -0.049,-0.2125 -0.0163,-0.14711 -0.0327,-0.3596 l -0.1798,-3.02391 h -0.11442 q -0.44132,0 -0.70285,-0.0164 -0.62113,-0.0327 -0.76824,-0.0327 h -0.13076 q -0.14711,0 -0.14711,0.27787 0,2.02684 -0.0163,2.58259 0,0.13077 -0.049,0.62113 -0.0327,0.37595 -0.27787,0.45767 l -0.24518,0.0163 q -1.27495,0.0654 -1.78166,0.0817 z"
       style="font-style:normal;font-variant:normal;font-weight:normal;font-stretch:normal;font-size:16.3455px;line-height:125%;font-family:'Sigmar One';-inkscape-font-specification:'Sigmar One';fill:#24282b;fill-opacity:1;stroke:none;stroke-width:0.798428"
       id="path2511" />
    <path
       d="m 241.59759,251.13635 q -0.27787,0 -0.3596,-0.3596 -0.0817,-0.1798 -0.0817,-0.65382 0,-1.42206 -0.0327,-2.53355 -0.049,-1.60186 -0.049,-3.38352 v -3.59601 q 0,-0.14711 0.13076,-0.27788 0.14711,-0.14711 0.29422,-0.14711 l 1.87973,0.0164 q 0.52306,0.0163 1.37303,0.0163 1.22591,0 1.89607,-0.0163 l 0.60479,-0.0164 q 0.98073,-0.0327 1.6182,-0.0327 1.02977,0 1.96146,0.29422 1.09515,0.32691 1.78166,1.12784 0.76824,0.86631 0.76824,2.33741 0,2.48451 -1.2586,3.59601 -1.1115,1.04611 -3.31814,1.04611 h -2.23933 q 0.0163,0.37595 0.0163,0.80093 0,0.14711 -0.0163,0.3596 0,0.19615 0,0.5394 0,0.5394 -0.22884,0.68651 -0.1798,0.14711 -0.67017,0.14711 -0.7192,0 -0.99707,0.0163 -1.12784,0 -1.79801,0.0327 z m 5.85169,-4.54405 q 0.34326,0 0.50671,-0.65382 0.13077,-0.44133 0.19615,-1.30764 0.0327,-0.47402 0.0327,-1.06246 v -0.1798 q 0,-0.26153 -0.0817,-0.78458 -0.0654,-0.29422 -0.14711,-0.45768 -0.0817,-0.1798 -0.21249,-0.29422 -0.13076,-0.1471 -0.29422,-0.1471 -0.0817,0 -0.14711,0.0654 -0.049,0.0654 -0.0981,0.16345 -0.1798,0.29422 -0.32691,1.30764 -0.049,0.29422 -0.0817,0.88266 -0.0817,0.899 -0.0817,2.40279 0,0 0.0163,0.0163 0.0164,0.0163 0.0654,0.0327 l 0.19615,0.0163 z"
       style="font-style:normal;font-variant:normal;font-weight:normal;font-stretch:normal;font-size:16.3455px;line-height:125%;font-family:'Sigmar One';-inkscape-font-specification:'Sigmar One';fill:#24282b;fill-opacity:1;stroke:none;stroke-width:0.798428"
       id="path2515" />
    <path
       id="path2407"
       style="color:#000000;font-style:normal;font-variant:normal;font-weight:normal;font-stretch:normal;font-size:medium;line-height:normal;font-family:sans-serif;font-variant-ligatures:normal;font-variant-position:normal;font-variant-caps:normal;font-variant-numeric:normal;font-variant-alternates:normal;font-variant-east-asian:normal;font-feature-settings:normal;font-variation-settings:normal;text-indent:0;text-align:start;text-decoration:none;text-decoration-line:none;text-decoration-style:solid;text-decoration-color:#000000;letter-spacing:normal;word-spacing:normal;text-transform:none;writing-mode:lr-tb;direction:ltr;text-orientation:mixed;dominant-baseline:auto;baseline-shift:baseline;text-anchor:start;white-space:normal;shape-padding:0;shape-margin:0;inline-size:0;clip-rule:nonzero;display:inline;overflow:visible;visibility:visible;isolation:auto;mix-blend-mode:normal;color-interpolation:sRGB;color-interpolation-filters:linearRGB;solid-color:#000000;solid-opacity:1;vector-effect:none;fill:#24282b;fill-opacity:1;fill-rule:evenodd;stroke:none;stroke-width:1;stroke-linecap:butt;stroke-linejoin:miter;stroke-miterlimit:4;stroke-dasharray:none;stroke-dashoffset:0;stroke-opacity:1;color-rendering:auto;image-rendering:auto;shape-rendering:auto;text-rendering:auto;enable-background:accumulate;stop-color:#000000"
       d="m 228.26685,230.06247 c 0,0 -0.0601,5.22505 0.0801,10.15984 0.99748,-0.7497 2.20037,-1.22034 3.48092,-1.27124 l -0.006,0.002 c 0.15035,-0.01 0.30023,-0.0129 0.4501,-0.0119 -0.0951,-4.44193 -0.0408,-10.965 -0.0408,-10.965 z m 4.11033,9.66121 c -1.23911,-0.0331 -2.47384,0.32396 -3.514,1.08106 -1.46953,1.06961 -2.23263,2.68573 -2.44533,4.29329 -0.20807,1.5725 0.0994,3.05417 0.57206,4.34753 0.33934,0.92869 0.78626,1.81562 1.32808,2.64274 l 1.10795,-2.20557 2.20865,0.0336 c -0.3748,-0.57211 -0.6851,-1.19002 -0.91984,-1.83245 -0.32199,-0.88114 -0.46097,-1.74392 -0.36536,-2.46653 0.091,-0.68754 0.44523,-1.31484 0.8475,-1.60763 0.31889,-0.23212 0.81095,-0.35978 1.25005,-0.3085 0.44879,0.0524 0.94252,0.29141 1.29708,0.64439 0.24007,0.239 0.44037,0.55023 0.58084,0.89246 -0.003,-7.6e-4 -0.005,-0.001 -0.008,-0.002 0.0727,0.17426 0.13122,0.35595 0.16898,0.54158 0.0841,0.41312 0.0833,0.86797 -0.001,1.31516 -0.008,0.0426 -0.0184,0.0848 -0.0279,0.12714 -0.007,0.0309 -0.0129,0.0618 -0.0207,0.0925 -0.0188,0.0741 -0.0396,0.1482 -0.063,0.22117 -2.1e-4,6.9e-4 -3e-4,10e-4 -5.1e-4,0.002 -0.18729,0.58545 -0.52416,1.03101 -0.81443,1.20719 -0.14027,0.0851 -0.291,0.12332 -0.38292,0.12504 -0.0827,0.002 -0.1673,-0.0339 -0.17777,-0.0413 -0.0206,-0.0147 -0.15686,-0.16611 -0.24236,-0.43927 -0.0923,-0.29493 -0.14612,-0.74141 -0.1912,-1.32447 v -0.002 c -0.0658,-0.85031 -0.073,-1.70987 -0.0977,-2.56675 -0.0594,-0.0103 -0.11927,-0.0176 -0.17932,-0.0176 -0.4824,7e-5 -0.96141,0.3235 -1.06453,0.83404 -4.1e-4,0.004 -9.1e-4,0.008 -0.001,0.0119 -0.44263,1.74831 0.61994,3.48009 1.58595,5.00023 0.10956,0.17087 -0.0162,0.39478 -0.21911,0.39015 -0.67665,-0.009 -2.00385,-0.049 -2.75384,-0.0625 -0.0608,0.13266 -0.11225,0.25294 -0.15968,0.36692 0.26429,0.37671 0.59434,0.73298 1.01855,1.03611 0.77715,0.55533 1.67131,0.79594 2.55643,0.77928 0.87597,-0.0163 1.67797,-0.28411 2.36523,-0.70126 1.36425,-0.82804 2.12989,-2.12719 2.53266,-3.38531 l 0.002,5e-4 c 0.38268,-1.19158 0.4839,-2.48431 0.22635,-3.75997 -0.25873,-1.28159 -0.87257,-2.49176 -1.834,-3.44889 -0.96699,-0.96264 -2.22948,-1.61174 -3.63285,-1.7756 -0.17664,-0.0206 -0.3537,-0.0335 -0.53072,-0.0382 z"
       sodipodi:nodetypes="ccccccccssscccsssssccssssscscsscccsccccccscsccssscc" />
  </g>
</svg>
