<?xml version="1.0" encoding="UTF-8" standalone="no"?>
<svg
   xmlns:dc="http://purl.org/dc/elements/1.1/"
   xmlns:cc="http://creativecommons.org/ns#"
   xmlns:rdf="http://www.w3.org/1999/02/22-rdf-syntax-ns#"
   xmlns:svg="http://www.w3.org/2000/svg"
   xmlns="http://www.w3.org/2000/svg"
   xmlns:sodipodi="http://sodipodi.sourceforge.net/DTD/sodipodi-0.dtd"
   xmlns:inkscape="http://www.inkscape.org/namespaces/inkscape"
   width="56.555573mm"
   height="122.24412mm"
   viewBox="0 0 56.555573 122.24412"
   version="1.1"
   id="svg1556"
   inkscape:version="1.0.2 (e86c870879, 2021-01-15)"
   sodipodi:docname="logo-front-full.svg">
  <defs
     id="defs1550" />
  <sodipodi:namedview
     id="base"
     pagecolor="#ffffff"
     bordercolor="#666666"
     borderopacity="1.0"
     inkscape:pageopacity="0.0"
     inkscape:pageshadow="2"
     inkscape:zoom="0.98994949"
     inkscape:cx="43.153459"
     inkscape:cy="105.19638"
     inkscape:document-units="mm"
     inkscape:current-layer="layer1"
     inkscape:document-rotation="0"
     showgrid="false"
     fit-margin-top="0"
     fit-margin-left="0"
     fit-margin-right="0"
     fit-margin-bottom="0"
     inkscape:window-width="1920"
     inkscape:window-height="1025"
     inkscape:window-x="0"
     inkscape:window-y="701"
     inkscape:window-maximized="1" />
  <metadata
     id="metadata1553">
    <rdf:RDF>
      <cc:Work
         rdf:about="">
        <dc:format>image/svg+xml</dc:format>
        <dc:type
           rdf:resource="http://purl.org/dc/dcmitype/StillImage" />
        <dc:title></dc:title>
      </cc:Work>
    </rdf:RDF>
  </metadata>
  <g
     inkscape:label="Layer 1"
     inkscape:groupmode="layer"
     id="layer1"
     transform="translate(-259.96435,-213.5874)">
    <text
       xml:space="preserve"
       style="font-size:11.2889px;line-height:125%;font-family:sigmar;-inkscape-font-specification:sigmar;fill:#1a1a1a;stroke:#ffffff;stroke-width:4.665"
       x="68.595131"
       y="161.69368"
       id="text2158"><tspan
         sodipodi:role="line"
         id="tspan2156"
         x="68.595131"
         y="161.69368"
         style="stroke-width:4.665"></tspan></text>
    <text
       xml:space="preserve"
       style="font-size:11.2889px;line-height:125%;font-family:sigmar;-inkscape-font-specification:sigmar;word-spacing:0.902229px;fill:#d35f5f;stroke:#ac9393;stroke-width:0.964999"
       x="259.96143"
       y="320.96902"
       id="text1023"><tspan
         id="tspan1021"
         x="259.96143"
         y="320.96902"
         style="font-style:normal;font-variant:normal;font-weight:normal;font-stretch:normal;font-family:'Sigmar One';-inkscape-font-specification:'Sigmar One';fill:#1a1a1a;stroke:none;stroke-width:0.965"
         dx="0 1.0700001 1.29 1.8200001 2.03 1.2"
         sodipodi:role="line">STR<tspan
   style="opacity:0.507226;fill:none;fill-opacity:0.370992;stroke:none;stroke-opacity:1"
   id="tspan1019">I</tspan>PE</tspan></text>
    <text
       xml:space="preserve"
       style="font-style:normal;font-variant:normal;font-weight:normal;font-stretch:normal;font-size:16.3455px;line-height:125%;font-family:'Sigmar One';-inkscape-font-specification:'Sigmar One';fill:#d35f5f;stroke:none;stroke-width:0.798428"
       x="259.73657"
       y="333.85254"
       id="text1029"><tspan
         sodipodi:role="line"
         id="tspan1027"
         x="259.73657"
         y="333.85254"
         style="font-size:16.3455px;fill:#1a1a1a;stroke-width:0.798428"
         dx="0 1 0.60000002 0.89999998">SH<tspan
   style="fill:none;fill-opacity:0.536954"
   id="tspan1025">O</tspan>P</tspan></text>
    <text
       xml:space="preserve"
       style="font-style:normal;font-variant:normal;font-weight:normal;font-stretch:normal;font-size:4.02705px;line-height:125%;font-family:'Sigmar One';-inkscape-font-specification:'Sigmar One';fill:#d35f5f;stroke:none;stroke-width:0.786837"
       x="260.13208"
       y="310.79437"
       id="text1033"><tspan
         sodipodi:role="line"
         id="tspan1031"
         x="260.13208"
         y="310.79437"
         style="font-style:normal;font-variant:normal;font-weight:normal;font-stretch:normal;font-size:4.02705px;font-family:Pacifico;-inkscape-font-specification:Pacifico;fill:#1a1a1a;stroke-width:0.786837">Welcome to the</tspan></text>
    <path
       style="fill:none;fill-rule:evenodd;stroke:#f3ca63;stroke-width:3.965;stroke-linecap:butt;stroke-linejoin:miter;stroke-miterlimit:4;stroke-dasharray:none;stroke-opacity:1"
       d="m 293.53997,213.59712 c 0.0635,12.95245 0.0124,81.66796 -0.15315,94.6195 -0.0925,7.2356 -0.22039,14.48339 0.33786,21.69801 0.046,0.59492 0.0978,1.19515 0.27604,1.7646 0.17824,0.56946 0.49527,1.11306 0.98076,1.45998 0.39381,0.28141 0.88336,0.41916 1.36729,0.41004 0.48394,-0.009 0.96097,-0.16149 1.37474,-0.41264 0.82754,-0.50228 1.37855,-1.37521 1.67351,-2.29722 0.28366,-0.88671 0.35379,-1.8453 0.16819,-2.75759 -0.18559,-0.91229 -0.63056,-1.77515 -1.29071,-2.4316 -0.66015,-0.65644 -1.53626,-1.09963 -2.46078,-1.20911 -0.92452,-0.10948 -1.89124,0.12224 -2.64675,0.66622 -0.94114,0.67764 -1.50739,1.79833 -1.66152,2.94775 -0.15414,1.14943 0.0733,2.32477 0.48459,3.4091"
       id="path1035"
       sodipodi:nodetypes="cssssssscssssc" />
    <path
       id="path1069"
       style="color:#000000;font-style:normal;font-variant:normal;font-weight:normal;font-stretch:normal;font-size:medium;line-height:normal;font-family:sans-serif;font-variant-ligatures:normal;font-variant-position:normal;font-variant-caps:normal;font-variant-numeric:normal;font-variant-alternates:normal;font-variant-east-asian:normal;font-feature-settings:normal;font-variation-settings:normal;text-indent:0;text-align:start;text-decoration:none;text-decoration-line:none;text-decoration-style:solid;text-decoration-color:#000000;letter-spacing:normal;word-spacing:normal;text-transform:none;writing-mode:lr-tb;direction:ltr;text-orientation:mixed;dominant-baseline:auto;baseline-shift:baseline;text-anchor:start;white-space:normal;shape-padding:0;shape-margin:0;inline-size:0;clip-rule:nonzero;display:inline;overflow:visible;visibility:visible;isolation:auto;mix-blend-mode:normal;color-interpolation:sRGB;color-interpolation-filters:linearRGB;solid-color:#000000;solid-opacity:1;vector-effect:none;fill:#ffffff;fill-opacity:1;fill-rule:evenodd;stroke:none;stroke-linecap:butt;stroke-linejoin:miter;stroke-miterlimit:4;stroke-dasharray:none;stroke-dashoffset:0;stroke-opacity:1;color-rendering:auto;image-rendering:auto;shape-rendering:auto;text-rendering:auto;enable-background:accumulate;stop-color:#000000"
       d="m 294.97488,321.90507 c -2.79598,0.11111 -5.23186,2.33178 -5.79544,5.0396 -0.75548,3.13364 0.55749,6.32291 2.29673,8.88685 0.94674,-1.18402 0.61735,-1.28442 1.32296,-2.73877 0.71395,0.0105 2.2157,0.0562 2.92966,0.0662 -0.96677,-1.52133 -2.09264,-3.32131 -1.61719,-5.19922 0.18734,-0.92745 1.35163,-1.35426 2.09426,-0.76969 1.12972,0.72152 2.97709,0.47703 2.56224,1.5998 1.58998,0.51 -0.0324,0.59945 1.55793,1.10831 0.95353,-2.55919 1.97646,-3.42197 0.17241,-5.54178 -1.32678,-1.62452 -3.42129,-2.58514 -5.52356,-2.45132 z"
       sodipodi:nodetypes="scccccccccss" />
    <path
       style="color:#000000;font-style:normal;font-variant:normal;font-weight:normal;font-stretch:normal;font-size:medium;line-height:normal;font-family:sans-serif;font-variant-ligatures:normal;font-variant-position:normal;font-variant-caps:normal;font-variant-numeric:normal;font-variant-alternates:normal;font-variant-east-asian:normal;font-feature-settings:normal;font-variation-settings:normal;text-indent:0;text-align:start;text-decoration:none;text-decoration-line:none;text-decoration-style:solid;text-decoration-color:#000000;letter-spacing:normal;word-spacing:normal;text-transform:none;writing-mode:lr-tb;direction:ltr;text-orientation:mixed;dominant-baseline:auto;baseline-shift:baseline;text-anchor:start;white-space:normal;shape-padding:0;shape-margin:0;inline-size:0;clip-rule:nonzero;display:inline;overflow:visible;visibility:visible;isolation:auto;mix-blend-mode:normal;color-interpolation:sRGB;color-interpolation-filters:linearRGB;solid-color:#000000;solid-opacity:1;vector-effect:none;fill:#ffc151;fill-opacity:1;fill-rule:evenodd;stroke:none;stroke-linecap:butt;stroke-linejoin:miter;stroke-miterlimit:4;stroke-dasharray:none;stroke-dashoffset:0;stroke-opacity:1;color-rendering:auto;image-rendering:auto;shape-rendering:auto;text-rendering:auto;enable-background:accumulate;stop-color:#000000"
       d="m 296.04519,322.46171 c -1.41306,-0.16498 -2.85616,0.17772 -4.04492,1.04297 -1.46953,1.06961 -2.23261,2.68542 -2.44531,4.29296 -0.20807,1.57252 0.0996,3.0543 0.57226,4.34766 0.33934,0.92868 0.78631,1.81548 1.32813,2.64258 l 1.10776,-2.20528 2.20865,0.0334 c -0.37479,-0.57212 -0.68519,-1.18961 -0.91993,-1.83203 -0.32199,-0.88114 -0.46084,-1.74421 -0.36523,-2.46679 0.091,-0.68756 0.44539,-1.31464 0.84766,-1.60743 0.31889,-0.23211 0.8109,-0.35985 1.25,-0.30859 0.44879,0.0524 0.94231,0.29156 1.29687,0.64453 0.36009,0.35848 0.63385,0.87754 0.74414,1.42383 0.11149,0.5522 0.0723,1.17982 -0.11523,1.76367 l 3.77539,1.21289 c 0.38267,-1.19158 0.48411,-2.4841 0.22656,-3.75976 -0.25873,-1.28159 -0.87255,-2.4921 -1.83398,-3.44922 -0.96699,-0.96265 -2.22945,-1.61153 -3.63282,-1.77539 z"
       id="path1057"
       sodipodi:nodetypes="sssscccssssssccsss" />
  </g>
</svg>
