<svg xmlns="http://www.w3.org/2000/svg" width="213.753" height="250.135" viewBox="0 0 56.556 66.181">
  <text xml:space="preserve" style="font-size:11.2889px;line-height:125%;font-family:sigmar;-inkscape-font-specification:sigmar;fill:#1a1a1a;stroke:#fff;stroke-width:4.665" x="68.595" y="161.694" transform="translate(-134.58 -157.628)"/>
  <g aria-label="STRIPE" style="font-size:11.2889px;line-height:125%;font-family:sigmar;-inkscape-font-specification:sigmar;word-spacing:.902229px;fill:#d35f5f;stroke:none;stroke-width:.965;stroke-miterlimit:4;stroke-dasharray:none">
    <path d="M138.37 209.517q-.802 0-1.615-.18-.801-.192-1.32-.52-.136-.406-.204-.813-.067-.406-.169-1.162v-.034q.023-.136.147-.203.429.26.824.395.395.124.87.124h.27l.18.011q.26 0 .531-.079.147-.056.204-.214l-.599-.294q-.688-.327-1.242-.7-.575-.417-.824-1.06-.124-.35-.124-.769 0-1.016.621-1.636.542-.554 1.468-.79.801-.193 1.76-.193.565 0 1.559.125.101.022.282.045l.338.068q.384.067.565.067.011 0 .034.034l.056.057q.045.079.09.079h.023l.023.237q0 .169.034.36.033.283.033.61 0 .283-.033.407-.057.226-.204.327l-1.05-.135h-.27q-.384 0-.881.079l-.372.079q-.136.022-.136.045 0 .27.35.508.17.09.339.158.169.056.214.079.836.237 1.445.824.282.271.44.576.158.305.158.587 0 .17-.045.361-.079.847-.643 1.468-.553.553-1.389.812-.722.26-1.738.26zM146.28 209.258q-.157 0-.236-.215-.17-.372-.17-1.355 0-.948.034-2.178.012-.395.012-1.22l-.034-.045h-1.253q-.147 0-.237-.158-.08-.17-.125-.463-.056-.338-.056-.97v-.159q0-.112.011-.18v-.271q0-.068.068-.113.068-.056.158-.079.113-.034.339-.034h.858q.282 0 .429.011l.417.012h4.064q.44 0 .576.011.057.011.158.023.102.01.147.045.079.034.09.09.023.045.023.147v1.863q0 .124-.102.169-.068.022-.18.022h-.734q-.26 0-.395-.022h-.339q-.102 0-.113.045 0 .011-.011.034-.012.011-.012.034v.553q0 .17-.01.26 0 .327-.046 1.433l-.023.339q-.022.474-.045.689v1.072q0 .384-.158.486-.147.056-.203.067l-.282.012q-.44 0-.621.022l-1.185.011q-.226.012-.813.012zM159.955 209.63q-.045 0-.08-.011-.169-.102-.281-.226-.034-.056-.046-.056-.011-.023-.034-.023l-.022-.011-.045-.046-.96-1.422q-.068-.147-.192-.316-.079-.079-.135-.17-.046-.067-.09-.067-.035 0-.057.034-.011.034-.023.09-.034.305-.034.824 0 .497-.056.802-.034.147-.102.147h-.067q-.023-.012-.045-.012l-.012-.011q-.395.034-1.185.079-.768.045-1.174.045-.113 0-.18-.022h-.554l-.406-.136-.034-.09q0-.012-.011-.045v-.09q0-.068-.023-.25-.056-.688-.045-.541l-.08-1.016-.033-.418q0-.203-.011-.36-.012-.159-.023-.272l-.023-.248q-.034-.463-.034-.87v-.033q.012-.023.012-.09.022-.068.022-.215l.012-.203.01-.136q0-.237-.022-.688-.045-.283-.045-.723 0-.632.08-.926.1-.406.338-.406 1.275 0 2.596.034.294 0 .88.022l.441.012q.903.022 1.253.022 1.456.068 2.201.734.34.282.497.677.17.396.17.847 0 .52-.192.96-.158.35-.452.643-.282.282-.643.452.067.034.18.147.045.056.158.146l.158.113q.034.057.08.113.044.045.09.102l.53.654q.361.463.463.678.079.146.079.226 0 .112-.09.203-.09.09-.271.225-.136.102-.316.192-.17.09-.26.17l-.418.226q-.225.124-.485.214-.011 0-.034.011-.011.012-.045.023-.068.034-.373.124-.056.034-.192.057-.034.022-.079.033-.045.012-.067.012h-.057q-.011.056-.045.056h-.034zm-1.852-3.985q.35 0 .553-.35.192-.316.215-.722.023-.237.023-.565v-.124q0-.26-.09-.542-.091-.361-.373-.52-.124-.1-.328-.1-.056 0-.09.135-.102.248-.113.79-.045.226-.045.53l-.011.34q-.023.654-.023 1.083 0 .011.011.023.012.01.023.01l.079.012z" style="fill:#24282b;fill-opacity:1;stroke:none" transform="translate(-134.58 -157.628)"/>
    <path d="M165.906 209.258q-.079 0-.146-.057-.068-.068-.102-.17-.045-.202-.068-.45-.01-.08-.01-.215v-.147l.01-1.4q0-.711.034-1.4v-3.567q0-.113.147-.113.779 0 1.163-.011h1.129q.034 0 .056-.012.023-.01.057-.01.146-.023.406-.012.192 0 .406.034.068.045.102.022.022 0 .09-.022.17 0 .26.022.101.023.158.102.056.102.09.248.011.113.011.474v2.372q-.01.09-.01.406 0 .338-.023.53l-.012.508q-.011.17-.011.43l-.011.18v.722q0 .678-.057 1.152 0 .158-.079.316-.203 0-.587.022-.18 0-.237.023H168.525q-.079 0-.079-.023-.09-.022-.101-.022l-.09.045h-1.04q-.01.011-.18.011h-.846z" style="opacity:.507226;fill:none;fill-opacity:.370992;stroke:none;stroke-width:.965;stroke-miterlimit:4;stroke-dasharray:none;stroke-opacity:1" transform="translate(-134.58 -157.628)"/>
    <path d="M173.378 209.235q-.192 0-.249-.248-.056-.125-.056-.452 0-.982-.023-1.75-.034-1.106-.034-2.337v-2.483q0-.102.09-.192.102-.102.204-.102l1.298.012q.361.011.948.011.847 0 1.31-.011l.418-.012q.677-.022 1.117-.022.711 0 1.355.203.756.226 1.23.779.531.598.531 1.614 0 1.716-.87 2.484-.767.722-2.29.722h-1.547q.01.26.01.553 0 .102-.01.249v.372q0 .373-.159.474-.124.102-.462.102-.497 0-.689.011-.779 0-1.242.023zm4.041-3.138q.237 0 .35-.452.09-.305.136-.903.022-.327.022-.734v-.124q0-.18-.056-.542-.045-.203-.102-.316-.056-.124-.147-.203-.09-.102-.203-.102-.056 0-.101.045-.034.046-.068.113-.124.204-.226.903-.034.204-.056.61-.057.621-.057 1.66l.012.01q.01.012.045.023l.135.012zM184.614 209.246q-.057 0-.17-.011-.113-.023-.27-.034l-.238-.056q-.056-.012-.09-.023-.023-.023-.011-.034 0-.293-.034-.779 0-.17-.012-.293-.01-.136-.022-.226l-.023-.485q0-.192-.022-.486l-.012-.35q0-.429-.011-.666-.011-.237-.011-.993 0-.712.011-1.468t.068-1.434q0-.124.27-.203.17-.022.565-.022.914 0 1.343-.034 1.333-.023 2.01-.023h.497q.925.023 1.422.068.18 0 .26.429.034.079.079.406.034.17.09.418.011.068 0 .135v.068q-.011.113-.124.113-.045-.011-.136-.011-.474 0-1.162.079l-.599.045q-.372.045-.587.056-.034 0-.09.136-.045.146-.102.677l-.022.282q0 .147.034.192.033.034.146.034h1.005q.44 0 1.005.056h.135q.147.034.18.113.046.068.057.147l.045 1.005v.034q0 .192-.406.226-.237.056-.903.056-.576 0-.745-.011-.328 0-.395.01-.124.035-.158.136-.034.09-.034.316 0 .147-.023.418-.011.136-.011.43.734 0 1.084-.023.383-.034 1.083-.034.046 0 .09.079.057.113.181.508.068.225.136.564.022.08.022.17 0 .236-.225.236-.294 0-.79.023-.26.023-.813.023-1.186 0-1.784.011z" style="fill:#24282b;fill-opacity:1;stroke:none" transform="translate(-134.58 -157.628)"/>
  </g>
  <g aria-label="SHOP" style="font-style:normal;font-variant:normal;font-weight:400;font-stretch:normal;font-size:16.3455px;line-height:125%;font-family:'Sigmar One';-inkscape-font-specification:'Sigmar One';fill:#d35f5f;stroke:none;stroke-width:.798428">
    <path d="M139.844 222.522q-1.16 0-2.337-.261-1.161-.278-1.913-.752-.196-.589-.294-1.177-.098-.589-.245-1.684v-.049q.032-.196.212-.294.621.376 1.193.572.572.18 1.259.18h.392l.262.016q.376 0 .768-.114.213-.082.294-.31l-.866-.426q-.997-.474-1.798-1.013-.834-.605-1.193-1.537-.18-.506-.18-1.111 0-1.471.899-2.37.785-.801 2.125-1.144 1.16-.278 2.55-.278.817 0 2.255.18.148.032.41.065l.49.098q.555.098.817.098.016 0 .049.05l.081.08q.066.115.131.115h.033l.032.343q0 .246.05.523.048.41.048.883 0 .409-.049.589-.081.327-.294.474l-1.52-.197h-.393q-.555 0-1.274.115l-.54.114q-.196.033-.196.066 0 .392.507.735.245.131.49.23.246.08.311.114 1.21.343 2.092 1.193.409.392.638.833.229.442.229.85 0 .245-.066.523-.114 1.226-.932 2.125-.8.801-2.01 1.177-1.046.376-2.517.376zM151.452 222.228q-1.03 0-1.536-.033-.785-.033-1.373-.196-.066 0-.131-.196-.05-.147-.05-.229l-.31-5.95v-.327q0-.114.017-.408.016-.294.016-.785l.033-.85q0-.327.016-.49 0-.49.033-.948v-.196q.016-.066.016-.082.033-.016.114-.082.099-.081.164-.13.163-.148.474-.148h1.209q.164.017.605.017.474 0 .768.016H153.12q.425 0 .572.13.197.148.197.573v.163q0 .066-.017.131-.016.066-.016.13l-.033.262-.016.197q0 .065.033.13.016.066.016.164 0 .441-.016.637l-.017.67h.425q.213.05.458.05.327.032.458.032.147.033.44.033l.017-1.112q.016-.147.016-.425l.017-.67v-.13q0-.262.016-.458.016-.213.065-.294.099-.131.23-.131.097-.033.457-.033l.441-.016q.474 0 .785-.033h.932q.653 0 .948-.016.572 0 .784-.017h.442q.392 0 .523.098.098.066.13.197.033.114.033.343 0 .637-.033 1.716-.065 1.046-.065 1.684 0 .098.033.163 0 .066.016.115.016.032.016.049l-.408 6.21q0 .083-.115.23-.147.147-.261.147h-4.495q-.05 0-.098-.082-.05-.082-.082-.212-.016-.082-.05-.213-.015-.147-.032-.36l-.18-3.023h-.114q-.441 0-.703-.017-.621-.032-.768-.032h-.13q-.148 0-.148.277 0 2.027-.016 2.583 0 .13-.05.621-.032.376-.277.458l-.245.016q-1.275.066-1.782.082z" style="fill:#24282b;fill-opacity:1" transform="translate(-134.58 -157.628)"/>
    <path d="M170.098 222.522q-1.946 0-3.073-.31-1.57-.41-2.387-1.52-.948-1.325-.948-3.678 0-1.684.376-2.86.376-1.178 1.16-1.93.785-.751 2.011-1.095 1.242-.36 3.024-.36 1.39 0 2.615.426 1.504.54 2.338 1.65 1.03 1.325 1.03 3.482 0 2.517-.752 3.923-.752 1.291-2.174 1.83-1.16.442-3.22.442zm-.131-1.585q.196 0 .31-.246.246-.523.344-1.65.098-1.03.098-1.946v-1.063q0-.718-.098-1.748-.099-1.112-.344-1.684-.13-.278-.31-.278-.36 0-.523.687-.164.948-.164 1.716-.049.654-.049 2.043 0 .932.05 1.537 0 .768.163 1.782.163.85.523.85z" style="fill:none;fill-opacity:.536954" transform="translate(-134.58 -157.628)"/>
    <path d="M179.35 222.113q-.278 0-.36-.36-.081-.179-.081-.653 0-1.422-.033-2.534-.049-1.601-.049-3.383v-3.596q0-.147.13-.278.148-.147.295-.147l1.88.016q.523.017 1.373.017 1.226 0 1.896-.017l.605-.016q.98-.033 1.618-.033 1.03 0 1.961.294 1.095.327 1.782 1.128.768.867.768 2.338 0 2.484-1.258 3.596-1.112 1.046-3.319 1.046h-2.239q.017.376.017.8 0 .148-.017.36v.54q0 .54-.229.686-.18.147-.67.147-.719 0-.997.017-1.128 0-1.798.032zm5.852-4.544q.343 0 .506-.653.131-.442.197-1.308.032-.474.032-1.063v-.18q0-.26-.081-.784-.066-.294-.147-.458-.082-.18-.213-.294-.13-.147-.294-.147-.082 0-.147.065-.05.066-.098.164-.18.294-.327 1.308-.05.294-.082.882-.082.9-.082 2.403l.017.016q.016.017.065.033l.196.016z" style="fill:#24282b;fill-opacity:1" transform="translate(-134.58 -157.628)"/>
  </g>
  <path style="color:#000;font-style:normal;font-variant:normal;font-weight:400;font-stretch:normal;font-size:medium;line-height:normal;font-family:sans-serif;font-variant-ligatures:normal;font-variant-position:normal;font-variant-caps:normal;font-variant-numeric:normal;font-variant-alternates:normal;font-variant-east-asian:normal;font-feature-settings:normal;font-variation-settings:normal;text-indent:0;text-align:start;text-decoration:none;text-decoration-line:none;text-decoration-style:solid;text-decoration-color:#000;letter-spacing:normal;word-spacing:normal;text-transform:none;writing-mode:lr-tb;direction:ltr;text-orientation:mixed;dominant-baseline:auto;baseline-shift:baseline;text-anchor:start;white-space:normal;shape-padding:0;shape-margin:0;inline-size:0;clip-rule:nonzero;display:inline;overflow:visible;visibility:visible;isolation:auto;mix-blend-mode:normal;color-interpolation:sRGB;color-interpolation-filters:linearRGB;solid-color:#000;solid-opacity:1;vector-effect:none;fill:#f3ca63;fill-opacity:1;fill-rule:evenodd;stroke:none;stroke-width:1;stroke-linecap:butt;stroke-linejoin:miter;stroke-miterlimit:4;stroke-dasharray:none;stroke-dashoffset:0;stroke-opacity:1;color-rendering:auto;image-rendering:auto;shape-rendering:auto;text-rendering:auto;enable-background:accumulate;stop-color:#000" d="m170.138 157.628-3.965.02c.064 12.94.012 25.88-.154 38.82-.062 4.876-.06 9.797.08 14.731.998-.75 2.2-1.22 3.481-1.27l-.006.002c.15-.01.3-.013.45-.012a391.56 391.56 0 0 1-.04-13.4c.165-12.963.218-25.926.154-38.89zm-.009 53.073a5.689 5.689 0 0 0-3.514 1.08c-1.469 1.07-2.232 2.687-2.445 4.294-.208 1.573.1 3.054.572 4.348.34.928.786 1.815 1.328 2.642l1.108-2.205 2.209.033a8.971 8.971 0 0 1-.92-1.832c-.322-.881-.46-1.744-.365-2.467.09-.687.445-1.314.847-1.607.32-.232.811-.36 1.25-.309.449.053.943.292 1.297.645.24.239.44.55.581.892-.003 0-.005 0-.008-.003.073.174.131.356.17.542.083.413.082.868-.002 1.315-.008.042-.018.085-.028.127l-.02.093c-.02.074-.04.148-.064.22v.004c-.187.585-.524 1.03-.815 1.207a.84.84 0 0 1-.382.125.392.392 0 0 1-.178-.041c-.02-.015-.157-.167-.243-.44-.092-.295-.146-.741-.19-1.324v-.003c-.067-.85-.074-1.71-.098-2.567-.06-.01-.12-.017-.18-.017-.482 0-.961.323-1.064.834a.253.253 0 0 1-.002.012c-.443 1.748.62 3.48 1.586 5a.253.253 0 0 1-.22.39c-.676-.01-2.003-.05-2.753-.063-.061.133-.113.253-.16.367.264.377.594.733 1.019 1.036a4.222 4.222 0 0 0 2.556.78 4.714 4.714 0 0 0 2.365-.702c1.364-.828 2.13-2.127 2.533-3.385h.002a7.463 7.463 0 0 0 .226-3.76 6.726 6.726 0 0 0-1.834-3.449 6.164 6.164 0 0 0-3.633-1.775 5.943 5.943 0 0 0-.53-.039z" transform="translate(-134.58 -157.628)"/>
</svg>