<?xml version="1.0" encoding="UTF-8" standalone="no"?>
<svg
   xmlns:dc="http://purl.org/dc/elements/1.1/"
   xmlns:cc="http://creativecommons.org/ns#"
   xmlns:rdf="http://www.w3.org/1999/02/22-rdf-syntax-ns#"
   xmlns:svg="http://www.w3.org/2000/svg"
   xmlns="http://www.w3.org/2000/svg"
   xmlns:sodipodi="http://sodipodi.sourceforge.net/DTD/sodipodi-0.dtd"
   xmlns:inkscape="http://www.inkscape.org/namespaces/inkscape"
   width="56.555573mm"
   height="122.24412mm"
   viewBox="0 0 56.555573 122.24412"
   version="1.1"
   id="svg1556"
   inkscape:version="1.0.2 (e86c870879, 2021-01-15)"
   sodipodi:docname="logo-front-full.svg">
  <defs
     id="defs1550" />
  <sodipodi:namedview
     id="base"
     pagecolor="#ffffff"
     bordercolor="#666666"
     borderopacity="1.0"
     inkscape:pageopacity="0.0"
     inkscape:pageshadow="2"
     inkscape:zoom="1.4"
     inkscape:cx="48.446853"
     inkscape:cy="230.3581"
     inkscape:document-units="mm"
     inkscape:current-layer="layer1"
     inkscape:document-rotation="0"
     showgrid="false"
     fit-margin-top="0"
     fit-margin-left="0"
     fit-margin-right="0"
     fit-margin-bottom="0"
     inkscape:window-width="1920"
     inkscape:window-height="1027"
     inkscape:window-x="0"
     inkscape:window-y="701"
     inkscape:window-maximized="1" />
  <metadata
     id="metadata1553">
    <rdf:RDF>
      <cc:Work
         rdf:about="">
        <dc:format>image/svg+xml</dc:format>
        <dc:type
           rdf:resource="http://purl.org/dc/dcmitype/StillImage" />
        <dc:title />
      </cc:Work>
    </rdf:RDF>
  </metadata>
  <g
     inkscape:label="Layer 1"
     inkscape:groupmode="layer"
     id="layer1"
     transform="translate(-259.96435,-213.5874)">
    <text
       xml:space="preserve"
       style="font-size:11.2889px;line-height:125%;font-family:sigmar;-inkscape-font-specification:sigmar;fill:#1a1a1a;stroke:#ffffff;stroke-width:4.665"
       x="68.595131"
       y="161.69368"
       id="text2158"><tspan
         sodipodi:role="line"
         id="tspan2156"
         x="68.595131"
         y="161.69368"
         style="stroke-width:4.665" /></text>
    <g
       aria-label="STRIPE"
       id="text1023"
       style="font-size:11.2889px;line-height:125%;font-family:sigmar;-inkscape-font-specification:sigmar;word-spacing:0.902229px;fill:#d35f5f;stroke:#ac9393;stroke-width:0.964999">
      <path
         d="m 263.7545,321.23996 q -0.80152,0 -1.61432,-0.18062 -0.80151,-0.19192 -1.3208,-0.51929 -0.13546,-0.4064 -0.2032,-0.8128 -0.0677,-0.4064 -0.16933,-1.16276 v -0.0339 q 0.0226,-0.13546 0.14675,-0.2032 0.42898,0.25965 0.82409,0.39511 0.39512,0.12418 0.86925,0.12418 h 0.27093 l 0.18063,0.0113 q 0.25964,0 0.53057,-0.079 0.14676,-0.0564 0.2032,-0.21449 l -0.59831,-0.29351 q -0.68862,-0.32738 -1.24178,-0.69991 -0.57573,-0.41769 -0.82409,-1.06116 -0.12417,-0.34996 -0.12417,-0.76765 0,-1.016 0.62088,-1.63689 0.54187,-0.55315 1.46756,-0.79022 0.80151,-0.19191 1.76107,-0.19191 0.56445,0 1.55787,0.12418 0.1016,0.0226 0.28222,0.0452 l 0.33867,0.0677 q 0.38382,0.0677 0.56444,0.0677 0.0113,0 0.0339,0.0339 0.0339,0.0339 0.0564,0.0564 0.0452,0.079 0.0903,0.079 h 0.0113 0.0113 l 0.0226,0.23707 q 0,0.16933 0.0339,0.36124 0.0339,0.28223 0.0339,0.60961 0,0.28222 -0.0339,0.4064 -0.0564,0.22577 -0.2032,0.32737 l -1.04987,-0.13546 h -0.11289 -0.15804 q -0.38383,0 -0.88054,0.079 l -0.37253,0.079 q -0.13547,0.0226 -0.13547,0.0452 0,0.27093 0.34996,0.508 0.16933,0.0903 0.33866,0.15804 0.16934,0.0565 0.21449,0.079 0.83538,0.23707 1.44498,0.82409 0.28223,0.27094 0.44027,0.57574 0.15804,0.3048 0.15804,0.58702 0,0.16933 -0.0451,0.36125 -0.079,0.84666 -0.64347,1.46755 -0.55315,0.55316 -1.38853,0.8128 -0.72249,0.25965 -1.73849,0.25965 z"
         style="font-style:normal;font-variant:normal;font-weight:normal;font-stretch:normal;font-family:'Sigmar One';-inkscape-font-specification:'Sigmar One';fill:#1a1a1a;stroke:none;stroke-width:0.965"
         id="path869" />
      <path
         d="m 271.66556,320.98031 q -0.15805,0 -0.23707,-0.21449 -0.16933,-0.37253 -0.16933,-1.35466 0,-0.94827 0.0339,-2.17876 0.0113,-0.39511 0.0113,-1.2192 l -0.0339,-0.0452 h -1.25306 q -0.14676,0 -0.23707,-0.15804 -0.079,-0.16934 -0.12418,-0.46285 -0.0564,-0.33866 -0.0564,-0.97084 v -0.15805 q 0,-0.11289 0.0113,-0.18062 v -0.16933 -0.1016 q 0,-0.0677 0.0677,-0.11289 0.0677,-0.0564 0.15804,-0.079 0.11289,-0.0339 0.33867,-0.0339 h 0.85796 q 0.28222,0 0.42898,0.0113 l 0.41768,0.0113 h 4.06401 q 0.44027,0 0.57573,0.0113 0.0564,0.0113 0.15805,0.0226 0.1016,0.0113 0.14675,0.0452 0.079,0.0339 0.0903,0.0903 0.0226,0.0452 0.0226,0.14676 v 1.86266 q 0,0.12418 -0.1016,0.16934 -0.0677,0.0226 -0.18062,0.0226 h -0.36125 -0.37253 q -0.25964,0 -0.39511,-0.0226 h -0.33867 q -0.1016,0 -0.11289,0.0451 0,0.0113 -0.0113,0.0339 -0.0113,0.0113 -0.0113,0.0339 v 0.16933 0.38382 q 0,0.16934 -0.0113,0.25965 0,0.32738 -0.0452,1.43369 l -0.0226,0.33866 q -0.0226,0.47414 -0.0452,0.68863 v 1.07244 q 0,0.38383 -0.15805,0.48543 -0.14675,0.0564 -0.2032,0.0677 l -0.28222,0.0113 q -0.44027,0 -0.62089,0.0226 l -1.18533,0.0113 q -0.22578,0.0113 -0.8128,0.0113 z"
         style="font-style:normal;font-variant:normal;font-weight:normal;font-stretch:normal;font-family:'Sigmar One';-inkscape-font-specification:'Sigmar One';fill:#1a1a1a;stroke:none;stroke-width:0.965"
         id="path871" />
      <path
         d="m 285.33948,321.35285 q -0.0452,0 -0.079,-0.0113 -0.16933,-0.1016 -0.28222,-0.22578 -0.0339,-0.0564 -0.0452,-0.0564 -0.0113,-0.0226 -0.0339,-0.0226 l -0.0226,-0.0113 q -0.0452,-0.0452 -0.0452,-0.0452 l -0.95955,-1.4224 q -0.0677,-0.14675 -0.19191,-0.31609 -0.079,-0.079 -0.13547,-0.16933 -0.0452,-0.0677 -0.0903,-0.0677 -0.0339,0 -0.0564,0.0339 -0.0113,0.0339 -0.0226,0.0903 -0.0339,0.3048 -0.0339,0.82409 0,0.49672 -0.0564,0.80152 -0.0339,0.14675 -0.1016,0.14675 h -0.0677 q -0.0226,-0.0113 -0.0452,-0.0113 -0.0113,-0.0113 -0.0113,-0.0113 -0.39511,0.0339 -1.18534,0.079 -0.76764,0.0451 -1.17404,0.0451 -0.11289,0 -0.18063,-0.0226 h -0.24835 -0.2032 -0.1016 l -0.4064,-0.13546 -0.0339,-0.0903 q 0,-0.0113 -0.0113,-0.0452 0,-0.0339 0,-0.0903 0,-0.0677 -0.0226,-0.24836 -0.0564,-0.68862 -0.0452,-0.54186 -0.0226,-0.29352 -0.079,-1.01601 l -0.0339,-0.41768 q 0,-0.2032 -0.0113,-0.36125 -0.0113,-0.15804 -0.0226,-0.27093 l -0.0226,-0.24836 q -0.0339,-0.46284 -0.0339,-0.86924 0,-0.0113 0,-0.0339 0.0113,-0.0226 0.0113,-0.0903 0.0226,-0.0677 0.0226,-0.21449 l 0.0113,-0.2032 0.0113,-0.13547 q 0,-0.23707 -0.0226,-0.68862 -0.0452,-0.28222 -0.0452,-0.72249 0,-0.63218 0.079,-0.92569 0.1016,-0.4064 0.33867,-0.4064 1.27565,0 2.59645,0.0339 0.29351,0 0.88053,0.0226 l 0.44027,0.0113 q 0.90311,0.0226 1.25307,0.0226 1.45626,0.0677 2.20133,0.73378 0.33867,0.28222 0.49671,0.67733 0.16934,0.39511 0.16934,0.84667 0,0.51929 -0.19191,0.95956 -0.15805,0.34995 -0.45156,0.64346 -0.28222,0.28223 -0.64347,0.45156 0.0677,0.0339 0.18062,0.14676 0.0452,0.0564 0.15805,0.14675 l 0.15804,0.11289 q 0.0339,0.0564 0.079,0.11289 0.0452,0.0452 0.0903,0.1016 l 0.53058,0.65476 q 0.36124,0.46284 0.46284,0.67733 0.079,0.14676 0.079,0.22578 0,0.11289 -0.0903,0.2032 -0.0903,0.0903 -0.27093,0.22578 -0.13547,0.1016 -0.31609,0.19191 -0.16933,0.0903 -0.25965,0.16933 l -0.41769,0.22578 q -0.22577,0.12418 -0.48542,0.21449 -0.0113,0 -0.0339,0.0113 -0.0113,0.0113 -0.0452,0.0226 -0.0677,0.0339 -0.37253,0.12418 -0.0565,0.0339 -0.19192,0.0565 -0.0339,0.0226 -0.079,0.0339 -0.0452,0.0113 -0.0677,0.0113 h -0.0564 q -0.0113,0.0564 -0.0451,0.0564 h -0.0339 z m -1.85138,-3.98498 q 0.34995,0 0.55315,-0.34996 0.19191,-0.31609 0.21449,-0.72249 0.0226,-0.23707 0.0226,-0.56445 v -0.12417 q 0,-0.25965 -0.0903,-0.54187 -0.0903,-0.36125 -0.37254,-0.51929 -0.12417,-0.1016 -0.32737,-0.1016 -0.0564,0 -0.0903,0.13547 -0.1016,0.24835 -0.11288,0.79022 -0.0452,0.22578 -0.0452,0.53058 l -0.0113,0.33867 q -0.0226,0.65475 -0.0226,1.08373 0,0.0113 0.0113,0.0226 0.0113,0.0113 0.0226,0.0113 l 0.079,0.0113 z"
         style="font-style:normal;font-variant:normal;font-weight:normal;font-stretch:normal;font-family:'Sigmar One';-inkscape-font-specification:'Sigmar One';fill:#1a1a1a;stroke:none;stroke-width:0.965"
         id="path873" />
      <path
         d="m 291.2912,320.98031 q -0.079,0 -0.14675,-0.0564 -0.0677,-0.0677 -0.1016,-0.16933 -0.0452,-0.2032 -0.0677,-0.45156 -0.0113,-0.079 -0.0113,-0.21449 v -0.14676 l 0.0113,-1.39982 q 0,-0.7112 0.0339,-1.39982 v -3.5673 q 0,-0.11288 0.14676,-0.11288 0.77893,0 1.16275,-0.0113 h 1.12889 q 0.0339,0 0.0564,-0.0113 0.0226,-0.0113 0.0564,-0.0113 0.14676,-0.0226 0.4064,-0.0113 0.19191,0 0.4064,0.0339 0.0677,0.0451 0.1016,0.0226 0.0226,0 0.0903,-0.0226 0.16934,0 0.25965,0.0226 0.1016,0.0226 0.15804,0.1016 0.0565,0.10161 0.0903,0.24836 0.0113,0.11289 0.0113,0.47413 v 2.20134 0.16933 q -0.0113,0.0903 -0.0113,0.4064 0,0.33867 -0.0226,0.53058 l -0.0113,0.508 q -0.0113,0.16934 -0.0113,0.42898 l -0.0113,0.18062 v 0.72249 q 0,0.67734 -0.0565,1.15147 0,0.15805 -0.079,0.31609 -0.2032,0 -0.58702,0.0226 -0.18062,0 -0.23707,0.0226 h -0.11289 -0.0339 q -0.079,0 -0.079,-0.0226 -0.0903,-0.0226 -0.1016,-0.0226 l -0.0903,0.0452 h -1.03858 q -0.0113,0.0113 -0.18062,0.0113 h -0.42898 -0.41769 z"
         style="opacity:0.507226;fill:none;fill-opacity:0.370992;stroke:none;stroke-opacity:1"
         id="path875" />
      <path
         d="m 298.76245,320.95774 q -0.19192,0 -0.24836,-0.24836 -0.0564,-0.12418 -0.0564,-0.45156 0,-0.98213 -0.0226,-1.74978 -0.0339,-1.10631 -0.0339,-2.3368 v -2.48356 q 0,-0.1016 0.0903,-0.19191 0.1016,-0.1016 0.2032,-0.1016 l 1.29823,0.0113 q 0.36124,0.0113 0.94826,0.0113 0.84667,0 1.30952,-0.0113 l 0.41769,-0.0113 q 0.67733,-0.0226 1.1176,-0.0226 0.7112,0 1.35466,0.2032 0.75636,0.22578 1.23049,0.77894 0.53058,0.59831 0.53058,1.61431 0,1.71591 -0.86924,2.48356 -0.76765,0.72249 -2.29165,0.72249 h -1.54658 q 0.0113,0.25964 0.0113,0.55316 0,0.1016 -0.0113,0.24835 0,0.13547 0,0.37254 0,0.37253 -0.15804,0.47413 -0.12418,0.1016 -0.46285,0.1016 -0.49671,0 -0.68862,0.0113 -0.77894,0 -1.24178,0.0226 z m 4.04142,-3.13832 q 0.23707,0 0.34996,-0.45155 0.0903,-0.3048 0.13546,-0.90312 0.0226,-0.32737 0.0226,-0.73378 v -0.12417 q 0,-0.18063 -0.0564,-0.54187 -0.0452,-0.2032 -0.1016,-0.31609 -0.0565,-0.12418 -0.14676,-0.2032 -0.0903,-0.1016 -0.2032,-0.1016 -0.0564,0 -0.1016,0.0452 -0.0339,0.0452 -0.0677,0.11288 -0.12418,0.20321 -0.22578,0.90312 -0.0339,0.2032 -0.0564,0.6096 -0.0565,0.62089 -0.0565,1.65947 0,0 0.0113,0.0113 0.0113,0.0113 0.0452,0.0226 l 0.13546,0.0113 z"
         style="font-style:normal;font-variant:normal;font-weight:normal;font-stretch:normal;font-family:'Sigmar One';-inkscape-font-specification:'Sigmar One';fill:#1a1a1a;stroke:none;stroke-width:0.965"
         id="path877" />
      <path
         d="m 309.99827,320.96902 q -0.0564,0 -0.16934,-0.0113 -0.11289,-0.0226 -0.27093,-0.0339 l -0.23707,-0.0565 q -0.0564,-0.0113 -0.0903,-0.0226 -0.0226,-0.0226 -0.0113,-0.0339 0,-0.29351 -0.0339,-0.77893 0,-0.16934 -0.0113,-0.29352 -0.0113,-0.13546 -0.0226,-0.22577 l -0.0226,-0.48543 q 0,-0.19191 -0.0226,-0.48542 l -0.0113,-0.34995 q 0,-0.42898 -0.0113,-0.66605 -0.0113,-0.23707 -0.0113,-0.99342 0,-0.7112 0.0113,-1.46756 0.0113,-0.75636 0.0677,-1.43369 0,-0.12418 0.27093,-0.2032 0.16934,-0.0226 0.56445,-0.0226 0.9144,0 1.34338,-0.0339 1.33209,-0.0226 2.00942,-0.0226 h 0.49671 q 0.92569,0.0226 1.4224,0.0677 0.18063,0 0.25965,0.42898 0.0339,0.079 0.079,0.4064 0.0339,0.16933 0.0903,0.41769 0.0113,0.0677 0,0.13547 0,0.0564 0,0.0677 -0.0113,0.11289 -0.12418,0.11289 -0.0452,-0.0113 -0.13546,-0.0113 -0.47414,0 -1.16276,0.079 l -0.59831,0.0452 q -0.37254,0.0452 -0.58702,0.0564 -0.0339,0 -0.0903,0.13547 -0.0452,0.14675 -0.1016,0.67733 l -0.0226,0.28222 q 0,0.14676 0.0339,0.19192 0.0339,0.0339 0.14676,0.0339 h 1.00471 q 0.44027,0 1.00471,0.0564 h 0.13547 q 0.14676,0.0339 0.18062,0.11289 0.0452,0.0677 0.0564,0.14675 l 0.0452,1.00471 v 0.0339 q 0,0.19191 -0.4064,0.22578 -0.23706,0.0564 -0.90311,0.0564 -0.57573,0 -0.74507,-0.0113 -0.32738,0 -0.39511,0.0113 -0.12418,0.0339 -0.15804,0.13547 -0.0339,0.0903 -0.0339,0.31609 0,0.14675 -0.0226,0.41769 -0.0113,0.13546 -0.0113,0.42898 0.73378,0 1.08374,-0.0226 0.38382,-0.0339 1.08373,-0.0339 0.0452,0 0.0903,0.079 0.0564,0.11289 0.18063,0.508 0.0677,0.22578 0.13546,0.56445 0.0226,0.079 0.0226,0.16933 0,0.23707 -0.22578,0.23707 -0.29351,0 -0.79022,0.0226 -0.25965,0.0226 -0.8128,0.0226 -1.18534,0 -1.78365,0.0113 z"
         style="font-style:normal;font-variant:normal;font-weight:normal;font-stretch:normal;font-family:'Sigmar One';-inkscape-font-specification:'Sigmar One';fill:#1a1a1a;stroke:none;stroke-width:0.965"
         id="path879" />
    </g>
    <g
       aria-label="SHOP"
       id="text1029"
       style="font-style:normal;font-variant:normal;font-weight:normal;font-stretch:normal;font-size:16.3455px;line-height:125%;font-family:'Sigmar One';-inkscape-font-specification:'Sigmar One';fill:#d35f5f;stroke:none;stroke-width:0.798428">
      <path
         d="m 265.22866,334.24483 q -1.16053,0 -2.33741,-0.26153 -1.16053,-0.27787 -1.91242,-0.75189 -0.19615,-0.58844 -0.29422,-1.17688 -0.0981,-0.58843 -0.24518,-1.68358 v -0.049 q 0.0327,-0.19615 0.21249,-0.29422 0.62113,0.37595 1.19322,0.57209 0.57209,0.1798 1.25861,0.1798 h 0.39229 l 0.26153,0.0163 q 0.37594,0 0.76823,-0.11442 0.2125,-0.0817 0.29422,-0.31056 l -0.86631,-0.42499 q -0.99707,-0.47402 -1.798,-1.01342 -0.83362,-0.60478 -1.19323,-1.53647 -0.1798,-0.50671 -0.1798,-1.1115 0,-1.47109 0.89901,-2.3701 0.78458,-0.80093 2.12491,-1.14418 1.16053,-0.27787 2.5499,-0.27787 0.81728,0 2.25568,0.1798 0.14711,0.0327 0.40864,0.0654 l 0.49036,0.0981 q 0.55575,0.0981 0.81728,0.0981 0.0163,0 0.049,0.049 0.049,0.049 0.0817,0.0817 0.0654,0.11442 0.13076,0.11442 h 0.0163 0.0163 l 0.0327,0.34325 q 0,0.24518 0.049,0.52306 0.049,0.40864 0.049,0.88266 0,0.40863 -0.049,0.58843 -0.0817,0.32691 -0.29422,0.47402 l -1.52013,-0.19614 h -0.16345 -0.22884 q -0.55575,0 -1.27495,0.11442 l -0.5394,0.11441 q -0.19615,0.0327 -0.19615,0.0654 0,0.39229 0.50671,0.73554 0.24519,0.13077 0.49037,0.22884 0.24518,0.0817 0.31056,0.11442 1.20957,0.34325 2.09223,1.19322 0.40864,0.39229 0.63747,0.83362 0.22884,0.44133 0.22884,0.84997 0,0.24518 -0.0654,0.52305 -0.11442,1.22592 -0.9317,2.12492 -0.80093,0.80093 -2.01049,1.17687 -1.04611,0.37595 -2.51721,0.37595 z"
         style="font-size:16.3455px;fill:#1a1a1a;stroke-width:0.798428"
         id="path907" />
      <path
         d="m 276.83687,333.95061 q -1.02977,0 -1.53648,-0.0327 -0.78458,-0.0327 -1.37302,-0.19614 -0.0654,0 -0.13076,-0.19615 -0.049,-0.14711 -0.049,-0.22884 l -0.31056,-5.94976 v -0.32691 q 0,-0.11442 0.0163,-0.40864 0.0163,-0.29422 0.0163,-0.78458 l 0.0327,-0.84997 q 0,-0.32691 0.0163,-0.49036 0,-0.49037 0.0327,-0.94804 0,-0.14711 0,-0.19615 0.0163,-0.0654 0.0163,-0.0817 0.0327,-0.0163 0.11442,-0.0817 0.0981,-0.0817 0.16345,-0.13077 0.16346,-0.14711 0.47402,-0.14711 h 0.94804 0.26153 q 0.16346,0.0163 0.60478,0.0163 0.47402,0 0.76824,0.0163 h 0.7519 0.60478 0.24518 q 0.42498,0 0.57209,0.13077 0.19615,0.14711 0.19615,0.57209 v 0.16346 q 0,0.0654 -0.0164,0.13076 -0.0163,0.0654 -0.0163,0.13076 l -0.0327,0.26153 -0.0163,0.19615 q 0,0.0654 0.0327,0.13076 0.0163,0.0654 0.0163,0.16346 0,0.44133 -0.0163,0.63747 l -0.0163,0.67017 h 0.42498 q 0.21249,0.049 0.45767,0.049 0.32691,0.0327 0.45768,0.0327 0.14711,0.0327 0.44133,0.0327 l 0.0163,-1.1115 q 0.0163,-0.14711 0.0163,-0.42498 l 0.0163,-0.67017 v -0.13076 q 0,-0.26153 0.0163,-0.45768 0.0163,-0.21249 0.0654,-0.29421 0.0981,-0.13077 0.22884,-0.13077 0.0981,-0.0327 0.45767,-0.0327 l 0.44133,-0.0163 q 0.47402,0 0.78459,-0.0327 h 0.93169 q 0.65382,0 0.94804,-0.0163 0.57209,0 0.78458,-0.0163 h 0.44133 q 0.39229,0 0.52306,0.0981 0.0981,0.0654 0.13076,0.19614 0.0327,0.11442 0.0327,0.34326 0,0.63747 -0.0327,1.71628 -0.0654,1.04611 -0.0654,1.68358 0,0.0981 0.0327,0.16346 0,0.0654 0.0163,0.11442 0.0163,0.0327 0.0163,0.049 l -0.40864,6.21129 q 0,0.0817 -0.11442,0.22884 -0.14711,0.14711 -0.26152,0.14711 h -4.49502 q -0.049,0 -0.0981,-0.0817 -0.049,-0.0817 -0.0817,-0.21249 -0.0163,-0.0817 -0.049,-0.21249 -0.0163,-0.14711 -0.0327,-0.3596 l -0.17981,-3.02392 h -0.11441 q -0.44133,0 -0.70286,-0.0163 -0.62113,-0.0327 -0.76824,-0.0327 h -0.13076 q -0.14711,0 -0.14711,0.27788 0,2.02684 -0.0163,2.58259 0,0.13076 -0.049,0.62113 -0.0327,0.37594 -0.27788,0.45767 l -0.24518,0.0163 q -1.27495,0.0654 -1.78166,0.0817 z"
         style="font-size:16.3455px;fill:#1a1a1a;stroke-width:0.798428"
         id="path909" />
      <path
         d="m 295.48228,334.24483 q -1.94512,0 -3.07296,-0.31056 -1.56916,-0.40864 -2.38644,-1.52014 -0.94804,-1.32398 -0.94804,-3.67773 0,-1.68359 0.37595,-2.86047 0.37594,-1.17687 1.16053,-1.92876 0.78458,-0.7519 2.0105,-1.09515 1.24225,-0.3596 3.02391,-0.3596 1.38937,0 2.61528,0.42498 1.50379,0.5394 2.33741,1.65089 1.02977,1.32399 1.02977,3.4816 0,2.5172 -0.7519,3.92292 -0.75189,1.29129 -2.17395,1.83069 -1.16053,0.44133 -3.22006,0.44133 z m -0.13077,-1.58551 q 0.19615,0 0.31057,-0.24519 0.24518,-0.52305 0.34325,-1.65089 0.0981,-1.02977 0.0981,-1.94512 v -0.65382 -0.40863 q 0,-0.7192 -0.0981,-1.74897 -0.0981,-1.1115 -0.34325,-1.68359 -0.13077,-0.27787 -0.31057,-0.27787 -0.3596,0 -0.52305,0.68651 -0.16346,0.94804 -0.16346,1.71628 -0.049,0.65382 -0.049,2.04318 0,0.9317 0.049,1.53648 0,0.76824 0.16346,1.78166 0.16345,0.84997 0.52305,0.84997 z"
         style="fill:none;fill-opacity:0.536954"
         id="path911" />
      <path
         d="m 304.73482,333.83619 q -0.27788,0 -0.3596,-0.3596 -0.0817,-0.1798 -0.0817,-0.65382 0,-1.42206 -0.0327,-2.53355 -0.049,-1.60186 -0.049,-3.38352 v -3.59601 q 0,-0.14711 0.13076,-0.27787 0.14711,-0.14711 0.29422,-0.14711 l 1.87974,0.0163 q 0.52305,0.0163 1.37302,0.0163 1.22591,0 1.89608,-0.0163 l 0.60478,-0.0163 q 0.98073,-0.0327 1.6182,-0.0327 1.02977,0 1.96146,0.29422 1.09515,0.32691 1.78166,1.12784 0.76824,0.86631 0.76824,2.3374 0,2.48452 -1.2586,3.59601 -1.11149,1.04611 -3.31814,1.04611 h -2.23933 q 0.0163,0.37595 0.0163,0.80093 0,0.14711 -0.0163,0.3596 0,0.19615 0,0.53941 0,0.5394 -0.22884,0.68651 -0.1798,0.14711 -0.67016,0.14711 -0.71921,0 -0.99708,0.0163 -1.12784,0 -1.798,0.0327 z m 5.85169,-4.54405 q 0.34325,0 0.50671,-0.65382 0.13076,-0.44132 0.19614,-1.30764 0.0327,-0.47402 0.0327,-1.06245 v -0.1798 q 0,-0.26153 -0.0817,-0.78459 -0.0654,-0.29422 -0.14711,-0.45767 -0.0817,-0.1798 -0.2125,-0.29422 -0.13076,-0.14711 -0.29421,-0.14711 -0.0817,0 -0.14711,0.0654 -0.049,0.0654 -0.0981,0.16346 -0.1798,0.29422 -0.32691,1.30764 -0.049,0.29422 -0.0817,0.88265 -0.0817,0.89901 -0.0817,2.40279 0,0 0.0163,0.0163 0.0163,0.0163 0.0654,0.0327 l 0.19614,0.0163 z"
         style="font-size:16.3455px;fill:#1a1a1a;stroke-width:0.798428"
         id="path913" />
    </g>
    <g
       aria-label="Welcome to the"
       id="text1033"
       style="font-style:normal;font-variant:normal;font-weight:normal;font-stretch:normal;font-size:4.02705px;line-height:125%;font-family:'Sigmar One';-inkscape-font-specification:'Sigmar One';fill:#d35f5f;stroke:none;stroke-width:0.786837">
      <path
         d="m 265.43973,309.05469 q 0.0926,0 0.13289,0.0403 0.0443,0.0403 0.0443,0.1047 0,0.1047 -0.0644,0.18525 -0.0604,0.0805 -0.1933,0.0846 -0.31814,0.004 -0.57184,-0.0483 -0.28189,0.60003 -0.68057,0.99871 -0.39465,0.39465 -0.78125,0.39465 -0.35438,0 -0.53157,-0.37452 -0.17719,-0.37854 -0.20135,-1.01079 -0.24163,0.70071 -0.54768,1.04301 -0.30203,0.3423 -0.64433,0.3423 -0.3866,0 -0.58392,-0.47922 -0.19733,-0.48325 -0.19733,-1.29671 0,-0.59198 0.10471,-1.30074 0.0282,-0.20135 0.10067,-0.27786 0.0765,-0.0805 0.2376,-0.0805 0.12081,0 0.18524,0.0524 0.0685,0.0524 0.0685,0.19329 0,0.0282 -0.008,0.10873 -0.12081,0.82555 -0.12081,1.40545 0,0.53962 0.0926,0.83359 0.0926,0.29398 0.24968,0.29398 0.14094,0 0.33827,-0.29398 0.20135,-0.298 0.39868,-0.87789 0.19732,-0.58392 0.33424,-1.38933 0.0322,-0.18525 0.11679,-0.25371 0.0886,-0.0725 0.23759,-0.0725 0.12484,0 0.18122,0.0564 0.0604,0.0523 0.0604,0.16108 0,0.0644 -0.008,0.10068 -0.11276,0.65641 -0.11276,1.31282 0,0.447 0.0282,0.71279 0.0322,0.26578 0.11679,0.40673 0.0886,0.13692 0.2537,0.13692 0.1933,0 0.4309,-0.28995 0.23759,-0.29397 0.43492,-0.72889 -0.24565,-0.15303 -0.37049,-0.39466 -0.12484,-0.24565 -0.12484,-0.56378 0,-0.31814 0.0967,-0.5356 0.10068,-0.22149 0.26981,-0.33022 0.17316,-0.10873 0.38257,-0.10873 0.25773,0 0.40673,0.18525 0.15303,0.18524 0.15303,0.5074 0,0.45506 -0.19732,1.01079 0.20538,0.0362 0.48324,0.0362 z m -1.18798,-0.79333 q 0,0.39465 0.25371,0.58392 0.15705,-0.45103 0.15705,-0.745 0,-0.16914 -0.0443,-0.24565 -0.0443,-0.0805 -0.12081,-0.0805 -0.10873,0 -0.17719,0.12886 -0.0685,0.12484 -0.0685,0.35841 z"
         style="font-style:normal;font-variant:normal;font-weight:normal;font-stretch:normal;font-size:4.02705px;font-family:Pacifico;-inkscape-font-specification:Pacifico;fill:#1a1a1a;stroke-width:0.786837"
         id="path882" />
      <path
         d="m 267.02236,309.89634 q 0.0523,0 0.0805,0.0483 0.0322,0.0483 0.0322,0.13289 0,0.16108 -0.0765,0.24967 -0.149,0.18122 -0.42284,0.33425 -0.26981,0.15303 -0.57989,0.15303 -0.42284,0 -0.65641,-0.22954 -0.23357,-0.22955 -0.23357,-0.62822 0,-0.27787 0.11678,-0.51547 0.11679,-0.24162 0.32217,-0.38257 0.2094,-0.14094 0.47116,-0.14094 0.23357,0 0.37452,0.14094 0.14094,0.13692 0.14094,0.37452 0,0.27787 -0.20135,0.47922 -0.19732,0.19732 -0.67252,0.31411 0.10068,0.18524 0.38257,0.18524 0.18122,0 0.41076,-0.12484 0.23357,-0.12886 0.40271,-0.33424 0.0483,-0.0564 0.10873,-0.0564 z m -1.01482,-0.58392 q -0.149,0 -0.2537,0.17316 -0.10068,0.17316 -0.10068,0.41881 v 0.008 q 0.2376,-0.0564 0.37452,-0.16914 0.13692,-0.11275 0.13692,-0.26176 0,-0.0765 -0.0443,-0.12081 -0.0403,-0.0483 -0.11276,-0.0483 z"
         style="font-style:normal;font-variant:normal;font-weight:normal;font-stretch:normal;font-size:4.02705px;font-family:Pacifico;-inkscape-font-specification:Pacifico;fill:#1a1a1a;stroke-width:0.786837"
         id="path884" />
      <path
         d="m 268.33518,309.89634 q 0.0524,0 0.0805,0.0483 0.0322,0.0483 0.0322,0.13289 0,0.16108 -0.0765,0.24967 -0.17316,0.21344 -0.37854,0.35036 -0.20136,0.13692 -0.45909,0.13692 -0.35438,0 -0.52754,-0.32217 -0.16914,-0.32216 -0.16914,-0.8336 0,-0.4913 0.12484,-1.11952 0.12887,-0.62822 0.37452,-1.07924 0.24967,-0.45103 0.59197,-0.45103 0.1933,0 0.30203,0.18121 0.11276,0.17719 0.11276,0.51144 0,0.47922 -0.26579,1.11146 -0.26578,0.63225 -0.72084,1.25242 0.0282,0.16511 0.0926,0.23759 0.0644,0.0685 0.16914,0.0685 0.16511,0 0.28995,-0.0926 0.12484,-0.0967 0.31814,-0.32619 0.0483,-0.0564 0.10873,-0.0564 z m -0.49533,-2.48872 q -0.0926,0 -0.20941,0.33425 -0.11678,0.33424 -0.20538,0.82957 -0.0886,0.49533 -0.0966,0.95038 0.28592,-0.47116 0.45506,-0.94232 0.16914,-0.4752 0.16914,-0.86582 0,-0.30606 -0.11276,-0.30606 z"
         style="font-style:normal;font-variant:normal;font-weight:normal;font-stretch:normal;font-size:4.02705px;font-family:Pacifico;-inkscape-font-specification:Pacifico;fill:#1a1a1a;stroke-width:0.786837"
         id="path886" />
      <path
         d="m 268.8909,310.81451 q -0.39465,0 -0.61614,-0.22149 -0.21746,-0.22551 -0.21746,-0.59198 0,-0.32619 0.12887,-0.57184 0.12886,-0.24565 0.33424,-0.37854 0.20538,-0.13289 0.4309,-0.13289 0.22149,0 0.3423,0.13289 0.12484,0.12887 0.12484,0.33425 0,0.16913 -0.0765,0.28592 -0.0725,0.11678 -0.1933,0.11678 -0.0765,0 -0.12484,-0.0362 -0.0443,-0.0362 -0.0443,-0.10068 0,-0.0282 0.008,-0.0644 0.008,-0.0362 0.0121,-0.0523 0.0201,-0.0604 0.0201,-0.11276 0,-0.0523 -0.0282,-0.0805 -0.0242,-0.0282 -0.0725,-0.0282 -0.0926,0 -0.17316,0.0846 -0.0805,0.0805 -0.12887,0.22148 -0.0483,0.14095 -0.0483,0.31009 0,0.46713 0.40673,0.46713 0.16511,0 0.35438,-0.10873 0.1933,-0.11275 0.37854,-0.33424 0.0483,-0.0564 0.10873,-0.0564 0.0523,0 0.0805,0.0483 0.0322,0.0483 0.0322,0.13289 0,0.15303 -0.0765,0.24967 -0.18927,0.23357 -0.45506,0.36244 -0.26176,0.12484 -0.50741,0.12484 z"
         style="font-style:normal;font-variant:normal;font-weight:normal;font-stretch:normal;font-size:4.02705px;font-family:Pacifico;-inkscape-font-specification:Pacifico;fill:#1a1a1a;stroke-width:0.786837"
         id="path888" />
      <path
         d="m 271.65748,309.55807 q 0.0523,0 0.0805,0.0523 0.0282,0.0524 0.0282,0.13289 0,0.1933 -0.11679,0.22954 -0.24162,0.0846 -0.53157,0.0967 -0.0765,0.33828 -0.30203,0.54366 -0.22551,0.20135 -0.51143,0.20135 -0.24162,0 -0.41479,-0.11679 -0.16913,-0.11678 -0.25773,-0.31008 -0.0886,-0.1933 -0.0886,-0.41881 0,-0.30606 0.11678,-0.54365 0.11678,-0.24163 0.32216,-0.37452 0.20538,-0.13692 0.45506,-0.13692 0.30606,0 0.4913,0.21343 0.18927,0.20941 0.22149,0.51949 0.18927,-0.0121 0.45103,-0.0805 0.0322,-0.008 0.0564,-0.008 z m -1.32088,0.82957 q 0.12887,0 0.22149,-0.1047 0.0967,-0.10471 0.12887,-0.30203 -0.12484,-0.0846 -0.1933,-0.22149 -0.0644,-0.13692 -0.0644,-0.28995 0,-0.0644 0.0121,-0.12886 h -0.0201 q -0.16108,0 -0.26981,0.15705 -0.1047,0.15303 -0.1047,0.43492 0,0.22149 0.0846,0.33828 0.0886,0.11678 0.20537,0.11678 z"
         style="font-style:normal;font-variant:normal;font-weight:normal;font-stretch:normal;font-size:4.02705px;font-family:Pacifico;-inkscape-font-specification:Pacifico;fill:#1a1a1a;stroke-width:0.786837"
         id="path890" />
      <path
         d="m 271.7058,310.81451 q -0.15303,0 -0.21746,-0.16108 -0.0604,-0.16109 -0.0604,-0.51547 0,-0.52351 0.149,-0.99468 0.0362,-0.11678 0.11678,-0.16913 0.0846,-0.0564 0.23357,-0.0564 0.0805,0 0.11276,0.0201 0.0322,0.0201 0.0322,0.0765 0,0.0644 -0.0604,0.28994 -0.0403,0.16109 -0.0644,0.2819 -0.0242,0.11678 -0.0403,0.29397 0.10873,-0.31411 0.25773,-0.53157 0.15303,-0.21746 0.31008,-0.32216 0.16108,-0.10873 0.30203,-0.10873 0.14095,0 0.19733,0.0644 0.0604,0.0644 0.0604,0.19733 0,0.12886 -0.0765,0.46713 -0.0322,0.14498 -0.0443,0.21746 0.20135,-0.49532 0.447,-0.72084 0.24565,-0.22551 0.45909,-0.22551 0.26176,0 0.26176,0.26176 0,0.15705 -0.0886,0.56781 -0.0765,0.35035 -0.0765,0.46311 0,0.16108 0.11678,0.16108 0.0805,0 0.18927,-0.0967 0.11276,-0.10067 0.298,-0.32216 0.0483,-0.0564 0.10873,-0.0564 0.0524,0 0.0805,0.0483 0.0322,0.0483 0.0322,0.13289 0,0.16108 -0.0765,0.24967 -0.17317,0.21344 -0.37452,0.35036 -0.19732,0.13692 -0.45103,0.13692 -0.20538,0 -0.31008,-0.11679 -0.1047,-0.12081 -0.1047,-0.34632 0,-0.11276 0.0564,-0.40271 0.0524,-0.2537 0.0524,-0.35035 0,-0.0644 -0.0443,-0.0644 -0.0523,0 -0.149,0.13692 -0.0967,0.13289 -0.1933,0.35438 -0.0966,0.22148 -0.15706,0.46713 -0.0443,0.1933 -0.1047,0.25774 -0.0564,0.0644 -0.18524,0.0644 -0.1329,0 -0.20136,-0.12484 -0.0644,-0.12887 -0.0644,-0.31008 0,-0.15303 0.0403,-0.44298 0.0322,-0.25773 0.0322,-0.33827 0,-0.0644 -0.0443,-0.0644 -0.0604,0 -0.15303,0.14497 -0.0926,0.14497 -0.18121,0.37049 -0.0846,0.22551 -0.13692,0.44297 -0.0443,0.18928 -0.10471,0.25774 -0.0564,0.0644 -0.18121,0.0644 z"
         style="font-style:normal;font-variant:normal;font-weight:normal;font-stretch:normal;font-size:4.02705px;font-family:Pacifico;-inkscape-font-specification:Pacifico;fill:#1a1a1a;stroke-width:0.786837"
         id="path892" />
      <path
         d="m 275.85768,310.01715 q 0.0523,0 0.0805,0.0483 0.0322,0.0483 0.0322,0.13289 0,0.14497 -0.0685,0.24968 -0.11276,0.17316 -0.298,0.26981 -0.18122,0.0967 -0.43492,0.0967 -0.3866,0 -0.60003,-0.22954 -0.21344,-0.23357 -0.21344,-0.62822 0,-0.27787 0.11679,-0.51547 0.11678,-0.24162 0.32216,-0.38257 0.20941,-0.14094 0.47117,-0.14094 0.23356,0 0.37451,0.14094 0.14095,0.13692 0.14095,0.37452 0,0.27787 -0.20135,0.47922 -0.19733,0.19732 -0.67655,0.31411 0.0966,0.18524 0.32619,0.18524 0.16511,0 0.26981,-0.0765 0.10873,-0.0765 0.24968,-0.25773 0.0483,-0.0604 0.10873,-0.0604 z m -0.66043,-0.70473 q -0.14901,0 -0.25371,0.17316 -0.10068,0.17316 -0.10068,0.41881 v 0.008 q 0.2376,-0.0564 0.37452,-0.16914 0.13692,-0.11275 0.13692,-0.26176 0,-0.0765 -0.0443,-0.12081 -0.0403,-0.0483 -0.11275,-0.0483 z"
         style="font-style:normal;font-variant:normal;font-weight:normal;font-stretch:normal;font-size:4.02705px;font-family:Pacifico;-inkscape-font-specification:Pacifico;fill:#1a1a1a;stroke-width:0.786837"
         id="path894" />
      <path
         d="m 278.93434,309.89634 q 0.0523,0 0.0805,0.0483 0.0322,0.0483 0.0322,0.13289 0,0.16108 -0.0765,0.24967 -0.17317,0.21344 -0.37855,0.35036 -0.20538,0.13692 -0.47116,0.13692 -0.82152,0 -0.82152,-1.15577 0,-0.17719 0.0121,-0.3584 h -0.15705 q -0.12081,0 -0.16511,-0.0443 -0.0403,-0.0443 -0.0403,-0.14095 0,-0.22551 0.18121,-0.22551 h 0.22955 q 0.0685,-0.44298 0.2094,-0.80944 0.14095,-0.36646 0.33828,-0.58392 0.20135,-0.21746 0.43089,-0.21746 0.16914,0 0.26579,0.149 0.0966,0.149 0.0966,0.37451 0,0.6242 -0.52351,1.08731 h 0.45103 q 0.0644,0 0.0926,0.0282 0.0282,0.0282 0.0282,0.1047 0,0.27787 -0.45506,0.27787 h -0.4913 q -0.008,0.20135 -0.008,0.31411 0,0.41881 0.0967,0.58795 0.10067,0.16913 0.31411,0.16913 0.17316,0 0.30605,-0.1047 0.1329,-0.1047 0.31411,-0.31411 0.0483,-0.0564 0.10873,-0.0564 z m -0.70473,-2.23099 q -0.0604,0 -0.13692,0.15303 -0.0725,0.149 -0.14095,0.41882 -0.0644,0.26578 -0.10873,0.59197 0.2376,-0.20538 0.35438,-0.45908 0.12081,-0.25773 0.12081,-0.46714 0,-0.2376 -0.0886,-0.2376 z"
         style="font-style:normal;font-variant:normal;font-weight:normal;font-stretch:normal;font-size:4.02705px;font-family:Pacifico;-inkscape-font-specification:Pacifico;fill:#1a1a1a;stroke-width:0.786837"
         id="path896" />
      <path
         d="m 279.40148,310.81451 q -0.2376,0 -0.40673,-0.11679 -0.16511,-0.12081 -0.24968,-0.31411 -0.0846,-0.19329 -0.0846,-0.41478 0,-0.30606 0.11276,-0.54365 0.11678,-0.24163 0.31411,-0.37452 0.19732,-0.13692 0.44297,-0.13692 0.2376,0 0.40674,0.12081 0.16913,0.11679 0.2537,0.31008 0.0846,0.1933 0.0846,0.41479 0,0.30606 -0.11679,0.54768 -0.11678,0.2376 -0.31813,0.37452 -0.19733,0.13289 -0.43895,0.13289 z m 0.0443,-0.43492 q 0.13692,0 0.22954,-0.149 0.0967,-0.14901 0.0967,-0.43493 0,-0.22148 -0.0805,-0.33424 -0.0805,-0.11276 -0.1933,-0.11276 -0.14498,0 -0.24163,0.149 -0.0926,0.14498 -0.0926,0.43492 0,0.22955 0.0805,0.33828 0.0805,0.10873 0.20136,0.10873 z"
         style="font-style:normal;font-variant:normal;font-weight:normal;font-stretch:normal;font-size:4.02705px;font-family:Pacifico;-inkscape-font-specification:Pacifico;fill:#1a1a1a;stroke-width:0.786837"
         id="path898" />
      <path
         d="m 283.40839,309.89634 q 0.0523,0 0.0805,0.0483 0.0322,0.0483 0.0322,0.13289 0,0.16108 -0.0765,0.24967 -0.17316,0.21344 -0.37854,0.35036 -0.20538,0.13692 -0.47117,0.13692 -0.82151,0 -0.82151,-1.15577 0,-0.17719 0.0121,-0.3584 h -0.15706 q -0.12081,0 -0.16511,-0.0443 -0.0403,-0.0443 -0.0403,-0.14095 0,-0.22551 0.18122,-0.22551 h 0.22954 q 0.0685,-0.44298 0.20941,-0.80944 0.14094,-0.36646 0.33827,-0.58392 0.20135,-0.21746 0.43089,-0.21746 0.16914,0 0.26579,0.149 0.0967,0.149 0.0967,0.37451 0,0.6242 -0.52352,1.08731 h 0.45103 q 0.0644,0 0.0926,0.0282 0.0282,0.0282 0.0282,0.1047 0,0.27787 -0.45505,0.27787 h -0.4913 q -0.008,0.20135 -0.008,0.31411 0,0.41881 0.0967,0.58795 0.10068,0.16913 0.31411,0.16913 0.17317,0 0.30606,-0.1047 0.13289,-0.1047 0.31411,-0.31411 0.0483,-0.0564 0.10873,-0.0564 z m -0.70474,-2.23099 q -0.0604,0 -0.13692,0.15303 -0.0725,0.149 -0.14094,0.41882 -0.0644,0.26578 -0.10873,0.59197 0.23759,-0.20538 0.35438,-0.45908 0.12081,-0.25773 0.12081,-0.46714 0,-0.2376 -0.0886,-0.2376 z"
         style="font-style:normal;font-variant:normal;font-weight:normal;font-stretch:normal;font-size:4.02705px;font-family:Pacifico;-inkscape-font-specification:Pacifico;fill:#1a1a1a;stroke-width:0.786837"
         id="path900" />
      <path
         d="m 285.42996,309.89634 q 0.0524,0 0.0806,0.0483 0.0322,0.0483 0.0322,0.13289 0,0.16108 -0.0765,0.24967 -0.18525,0.21344 -0.38257,0.35036 -0.1933,0.13692 -0.44298,0.13692 -0.20538,0 -0.31008,-0.11679 -0.1047,-0.12081 -0.1047,-0.34632 0,-0.11276 0.0564,-0.40271 0.0523,-0.2537 0.0523,-0.35035 0,-0.0644 -0.0443,-0.0644 -0.0523,0 -0.149,0.13692 -0.0966,0.13289 -0.1933,0.35438 -0.0967,0.22148 -0.15705,0.46713 -0.0765,0.32217 -0.37855,0.32217 -0.12081,0 -0.16108,-0.0846 -0.0362,-0.0886 -0.0362,-0.31411 0,-0.12887 0.004,-0.20538 l 0.004,-0.32216 q 0,-0.62017 0.12484,-1.29269 0.12887,-0.67251 0.37452,-1.12757 0.24967,-0.45908 0.596,-0.45908 0.18524,0 0.298,0.16108 0.11679,0.15705 0.11679,0.41076 0,0.40673 -0.2376,0.84568 -0.2376,0.43492 -0.77319,1.01884 -0.0121,0.20941 -0.0121,0.4309 0.1329,-0.3423 0.29398,-0.55574 0.16511,-0.21746 0.32216,-0.31008 0.16109,-0.0926 0.29398,-0.0926 0.26176,0 0.26176,0.26176 0,0.15705 -0.0886,0.56781 -0.0765,0.35035 -0.0765,0.46311 0,0.16108 0.11678,0.16108 0.0805,0 0.18927,-0.0967 0.11276,-0.10067 0.298,-0.32216 0.0483,-0.0564 0.10873,-0.0564 z m -1.19603,-2.48872 q -0.0725,0 -0.16108,0.20941 -0.0886,0.20538 -0.17316,0.55976 -0.0806,0.35035 -0.1329,0.76514 0.24968,-0.29398 0.41076,-0.6403 0.16511,-0.34633 0.16511,-0.62822 0,-0.12887 -0.0282,-0.19733 -0.0282,-0.0685 -0.0805,-0.0685 z"
         style="font-style:normal;font-variant:normal;font-weight:normal;font-stretch:normal;font-size:4.02705px;font-family:Pacifico;-inkscape-font-specification:Pacifico;fill:#1a1a1a;stroke-width:0.786837"
         id="path902" />
      <path
         d="m 286.65821,310.01715 q 0.0523,0 0.0805,0.0483 0.0322,0.0483 0.0322,0.13289 0,0.14497 -0.0685,0.24968 -0.11276,0.17316 -0.298,0.26981 -0.18122,0.0967 -0.43492,0.0967 -0.3866,0 -0.60003,-0.22954 -0.21344,-0.23357 -0.21344,-0.62822 0,-0.27787 0.11679,-0.51547 0.11678,-0.24162 0.32216,-0.38257 0.20941,-0.14094 0.47117,-0.14094 0.23356,0 0.37451,0.14094 0.14095,0.13692 0.14095,0.37452 0,0.27787 -0.20135,0.47922 -0.19733,0.19732 -0.67655,0.31411 0.0967,0.18524 0.32619,0.18524 0.16511,0 0.26981,-0.0765 0.10873,-0.0765 0.24968,-0.25773 0.0483,-0.0604 0.10873,-0.0604 z m -0.66043,-0.70473 q -0.14901,0 -0.25371,0.17316 -0.10067,0.17316 -0.10067,0.41881 v 0.008 q 0.23759,-0.0564 0.37451,-0.16914 0.13692,-0.11275 0.13692,-0.26176 0,-0.0765 -0.0443,-0.12081 -0.0403,-0.0483 -0.11275,-0.0483 z"
         style="font-style:normal;font-variant:normal;font-weight:normal;font-stretch:normal;font-size:4.02705px;font-family:Pacifico;-inkscape-font-specification:Pacifico;fill:#1a1a1a;stroke-width:0.786837"
         id="path904" />
    </g>
    <path
       style="fill:none;fill-rule:evenodd;stroke:#f3ca63;stroke-width:3.965;stroke-linecap:butt;stroke-linejoin:miter;stroke-miterlimit:4;stroke-dasharray:none;stroke-opacity:1"
       d="m 293.53997,213.59712 c 0.0635,12.95245 0.0124,81.66796 -0.15315,94.6195 -0.0925,7.2356 -0.22039,14.48339 0.33786,21.69801 0.046,0.59492 0.0978,1.19515 0.27604,1.7646 0.17824,0.56946 0.49527,1.11306 0.98076,1.45998 0.39381,0.28141 0.88336,0.41916 1.36729,0.41004 0.48394,-0.009 0.96097,-0.16149 1.37474,-0.41264 0.82754,-0.50228 1.37855,-1.37521 1.67351,-2.29722 0.28366,-0.88671 0.35379,-1.8453 0.16819,-2.75759 -0.18559,-0.91229 -0.63056,-1.77515 -1.29071,-2.4316 -0.66015,-0.65644 -1.53626,-1.09963 -2.46078,-1.20911 -0.92452,-0.10948 -1.89124,0.12224 -2.64675,0.66622 -0.94114,0.67764 -1.50739,1.79833 -1.66152,2.94775 -0.15414,1.14943 0.0733,2.32477 0.48459,3.4091"
       id="path1035"
       sodipodi:nodetypes="cssssssscssssc" />
    <path
       id="path1069"
       style="color:#000000;font-style:normal;font-variant:normal;font-weight:normal;font-stretch:normal;font-size:medium;line-height:normal;font-family:sans-serif;font-variant-ligatures:normal;font-variant-position:normal;font-variant-caps:normal;font-variant-numeric:normal;font-variant-alternates:normal;font-variant-east-asian:normal;font-feature-settings:normal;font-variation-settings:normal;text-indent:0;text-align:start;text-decoration:none;text-decoration-line:none;text-decoration-style:solid;text-decoration-color:#000000;letter-spacing:normal;word-spacing:normal;text-transform:none;writing-mode:lr-tb;direction:ltr;text-orientation:mixed;dominant-baseline:auto;baseline-shift:baseline;text-anchor:start;white-space:normal;shape-padding:0;shape-margin:0;inline-size:0;clip-rule:nonzero;display:inline;overflow:visible;visibility:visible;isolation:auto;mix-blend-mode:normal;color-interpolation:sRGB;color-interpolation-filters:linearRGB;solid-color:#000000;solid-opacity:1;vector-effect:none;fill:#ffffff;fill-opacity:1;fill-rule:evenodd;stroke:none;stroke-linecap:butt;stroke-linejoin:miter;stroke-miterlimit:4;stroke-dasharray:none;stroke-dashoffset:0;stroke-opacity:1;color-rendering:auto;image-rendering:auto;shape-rendering:auto;text-rendering:auto;enable-background:accumulate;stop-color:#000000"
       d="m 294.97488,321.90507 c -2.79598,0.11111 -5.23186,2.33178 -5.79544,5.0396 -0.75548,3.13364 0.55749,6.32291 2.29673,8.88685 0.94674,-1.18402 0.61735,-1.28442 1.32296,-2.73877 0.71395,0.0105 2.2157,0.0562 2.92966,0.0662 -0.96677,-1.52133 -2.09264,-3.32131 -1.61719,-5.19922 0.18734,-0.92745 1.35163,-1.35426 2.09426,-0.76969 1.12972,0.72152 2.97709,0.47703 2.56224,1.5998 1.58998,0.51 -0.0324,0.59945 1.55793,1.10831 0.95353,-2.55919 1.97646,-3.42197 0.17241,-5.54178 -1.32678,-1.62452 -3.42129,-2.58514 -5.52356,-2.45132 z"
       sodipodi:nodetypes="scccccccccss" />
    <path
       style="color:#000000;font-style:normal;font-variant:normal;font-weight:normal;font-stretch:normal;font-size:medium;line-height:normal;font-family:sans-serif;font-variant-ligatures:normal;font-variant-position:normal;font-variant-caps:normal;font-variant-numeric:normal;font-variant-alternates:normal;font-variant-east-asian:normal;font-feature-settings:normal;font-variation-settings:normal;text-indent:0;text-align:start;text-decoration:none;text-decoration-line:none;text-decoration-style:solid;text-decoration-color:#000000;letter-spacing:normal;word-spacing:normal;text-transform:none;writing-mode:lr-tb;direction:ltr;text-orientation:mixed;dominant-baseline:auto;baseline-shift:baseline;text-anchor:start;white-space:normal;shape-padding:0;shape-margin:0;inline-size:0;clip-rule:nonzero;display:inline;overflow:visible;visibility:visible;isolation:auto;mix-blend-mode:normal;color-interpolation:sRGB;color-interpolation-filters:linearRGB;solid-color:#000000;solid-opacity:1;vector-effect:none;fill:#f3ca63;fill-opacity:1;fill-rule:evenodd;stroke:none;stroke-linecap:butt;stroke-linejoin:miter;stroke-miterlimit:4;stroke-dasharray:none;stroke-dashoffset:0;stroke-opacity:1;color-rendering:auto;image-rendering:auto;shape-rendering:auto;text-rendering:auto;enable-background:accumulate;stop-color:#000000"
       d="m 296.04519,322.46171 c -1.41306,-0.16498 -2.85616,0.17772 -4.04492,1.04297 -1.46953,1.06961 -2.23261,2.68542 -2.44531,4.29296 -0.20807,1.57252 0.0996,3.0543 0.57226,4.34766 0.33934,0.92868 0.78631,1.81548 1.32813,2.64258 l 1.10776,-2.20528 2.20865,0.0334 c -0.37479,-0.57212 -0.68519,-1.18961 -0.91993,-1.83203 -0.32199,-0.88114 -0.46084,-1.74421 -0.36523,-2.46679 0.091,-0.68756 0.44539,-1.31464 0.84766,-1.60743 0.31889,-0.23211 0.8109,-0.35985 1.25,-0.30859 0.44879,0.0524 0.94231,0.29156 1.29687,0.64453 0.36009,0.35848 0.63385,0.87754 0.74414,1.42383 0.11149,0.5522 0.0723,1.17982 -0.11523,1.76367 l 3.77539,1.21289 c 0.38267,-1.19158 0.48411,-2.4841 0.22656,-3.75976 -0.25873,-1.28159 -0.87255,-2.4921 -1.83398,-3.44922 -0.96699,-0.96265 -2.22945,-1.61153 -3.63282,-1.77539 z"
       id="path1057"
       sodipodi:nodetypes="sssscccssssssccsss" />
  </g>
</svg>
